<?xml version="1.0" encoding="utf-8" ?>
<svg xmlns="http://www.w3.org/2000/svg" xmlns:ev="http://www.w3.org/2001/xml-events" xmlns:xlink="http://www.w3.org/1999/xlink" baseProfile="full" height="786" style="font-family:monospace;font-size:13px" version="1.1" width="1024">
  <defs/>
  <rect fill="#FFF" height="786" stroke="#000" stroke-width="2" width="1024" x="0" y="0"/>
  <svg height="20.48" width="100.352" x="923.648" y="765.52">
    <defs/>
    <rect fill="#000" height="100%" width="100%" x="0" y="0"/>
    <a target="_blank" xlink:href="https://4cat.nl">
      <text dominant-baseline="middle" fill="#FFF" style="font-size:10px" text-anchor="middle" x="50%" y="50%">made with 4CAT</text>
    </a>
  </svg>
  <line stroke="#EEE" stroke-width="2" x1="100" x2="974" y1="50.0" y2="50.0"/>
  <line stroke="#EEE" stroke-width="2" x1="100" x2="974" y1="116.1" y2="116.1"/>
  <line stroke="#EEE" stroke-width="2" x1="100" x2="974" y1="182.2" y2="182.2"/>
  <line stroke="#EEE" stroke-width="2" x1="100" x2="974" y1="248.29999999999998" y2="248.29999999999998"/>
  <line stroke="#EEE" stroke-width="2" x1="100" x2="974" y1="314.4" y2="314.4"/>
  <line stroke="#EEE" stroke-width="2" x1="100" x2="974" y1="380.5" y2="380.5"/>
  <line stroke="#EEE" stroke-width="2" x1="100" x2="974" y1="446.59999999999997" y2="446.59999999999997"/>
  <line stroke="#EEE" stroke-width="2" x1="100" x2="974" y1="512.6999999999999" y2="512.6999999999999"/>
  <line stroke="#EEE" stroke-width="2" x1="100" x2="974" y1="578.8" y2="578.8"/>
  <line stroke="#EEE" stroke-width="2" x1="100" x2="974" y1="644.9" y2="644.9"/>
  <path d="M 100.328571 711.000000 L 100.328571 413.550000 L 106.242857 413.550000 L 106.242857 711.000000 Z" fill="#000"/>
  <path d="M 106.900000 711.000000 L 106.900000 314.400000 L 112.814286 314.400000 L 112.814286 711.000000 Z" fill="#000"/>
  <path d="M 113.471429 711.000000 L 113.471429 380.500000 L 119.385714 380.500000 L 119.385714 711.000000 Z" fill="#000"/>
  <path d="M 120.042857 711.000000 L 120.042857 281.350000 L 125.957143 281.350000 L 125.957143 711.000000 Z" fill="#000"/>
  <path d="M 126.614286 711.000000 L 126.614286 281.350000 L 132.528571 281.350000 L 132.528571 711.000000 Z" fill="#000"/>
  <path d="M 133.185714 711.000000 L 133.185714 281.350000 L 139.100000 281.350000 L 139.100000 711.000000 Z" fill="#000"/>
  <path d="M 139.757143 711.000000 L 139.757143 215.250000 L 145.671429 215.250000 L 145.671429 711.000000 Z" fill="#000"/>
  <path d="M 146.328571 711.000000 L 146.328571 314.400000 L 152.242857 314.400000 L 152.242857 711.000000 Z" fill="#000"/>
  <path d="M 152.900000 711.000000 L 152.900000 314.400000 L 158.814286 314.400000 L 158.814286 711.000000 Z" fill="#000"/>
  <path d="M 159.471429 711.000000 L 159.471429 314.400000 L 165.385714 314.400000 L 165.385714 711.000000 Z" fill="#000"/>
  <path d="M 166.042857 711.000000 L 166.042857 347.450000 L 171.957143 347.450000 L 171.957143 711.000000 Z" fill="#000"/>
  <path d="M 172.614286 711.000000 L 172.614286 314.400000 L 178.528571 314.400000 L 178.528571 711.000000 Z" fill="#000"/>
  <path d="M 179.185714 711.000000 L 179.185714 314.400000 L 185.100000 314.400000 L 185.100000 711.000000 Z" fill="#000"/>
  <path d="M 185.757143 711.000000 L 185.757143 314.400000 L 191.671429 314.400000 L 191.671429 711.000000 Z" fill="#000"/>
  <path d="M 192.328571 711.000000 L 192.328571 347.450000 L 198.242857 347.450000 L 198.242857 711.000000 Z" fill="#000"/>
  <path d="M 198.900000 711.000000 L 198.900000 380.500000 L 204.814286 380.500000 L 204.814286 711.000000 Z" fill="#000"/>
  <path d="M 205.471429 711.000000 L 205.471429 314.400000 L 211.385714 314.400000 L 211.385714 711.000000 Z" fill="#000"/>
  <path d="M 212.042857 711.000000 L 212.042857 215.250000 L 217.957143 215.250000 L 217.957143 711.000000 Z" fill="#000"/>
  <path d="M 218.614286 711.000000 L 218.614286 248.300000 L 224.528571 248.300000 L 224.528571 711.000000 Z" fill="#000"/>
  <path d="M 225.185714 711.000000 L 225.185714 281.350000 L 231.100000 281.350000 L 231.100000 711.000000 Z" fill="#000"/>
  <path d="M 231.757143 711.000000 L 231.757143 281.350000 L 237.671429 281.350000 L 237.671429 711.000000 Z" fill="#000"/>
  <path d="M 238.328571 711.000000 L 238.328571 413.550000 L 244.242857 413.550000 L 244.242857 711.000000 Z" fill="#000"/>
  <path d="M 244.900000 711.000000 L 244.900000 347.450000 L 250.814286 347.450000 L 250.814286 711.000000 Z" fill="#000"/>
  <path d="M 251.471429 711.000000 L 251.471429 281.350000 L 257.385714 281.350000 L 257.385714 711.000000 Z" fill="#000"/>
  <path d="M 258.042857 711.000000 L 258.042857 281.350000 L 263.957143 281.350000 L 263.957143 711.000000 Z" fill="#000"/>
  <path d="M 264.614286 711.000000 L 264.614286 380.500000 L 270.528571 380.500000 L 270.528571 711.000000 Z" fill="#000"/>
  <path d="M 271.185714 711.000000 L 271.185714 314.400000 L 277.100000 314.400000 L 277.100000 711.000000 Z" fill="#000"/>
  <path d="M 277.757143 711.000000 L 277.757143 347.450000 L 283.671429 347.450000 L 283.671429 711.000000 Z" fill="#000"/>
  <path d="M 284.328571 711.000000 L 284.328571 347.450000 L 290.242857 347.450000 L 290.242857 711.000000 Z" fill="#000"/>
  <path d="M 290.900000 711.000000 L 290.900000 380.500000 L 296.814286 380.500000 L 296.814286 711.000000 Z" fill="#000"/>
  <path d="M 297.471429 711.000000 L 297.471429 347.450000 L 303.385714 347.450000 L 303.385714 711.000000 Z" fill="#000"/>
  <path d="M 304.042857 711.000000 L 304.042857 248.300000 L 309.957143 248.300000 L 309.957143 711.000000 Z" fill="#000"/>
  <path d="M 310.614286 711.000000 L 310.614286 215.250000 L 316.528571 215.250000 L 316.528571 711.000000 Z" fill="#000"/>
  <path d="M 317.185714 711.000000 L 317.185714 281.350000 L 323.100000 281.350000 L 323.100000 711.000000 Z" fill="#000"/>
  <path d="M 323.757143 711.000000 L 323.757143 281.350000 L 329.671429 281.350000 L 329.671429 711.000000 Z" fill="#000"/>
  <path d="M 330.328571 711.000000 L 330.328571 347.450000 L 336.242857 347.450000 L 336.242857 711.000000 Z" fill="#000"/>
  <path d="M 336.900000 711.000000 L 336.900000 347.450000 L 342.814286 347.450000 L 342.814286 711.000000 Z" fill="#000"/>
  <path d="M 343.471429 711.000000 L 343.471429 380.500000 L 349.385714 380.500000 L 349.385714 711.000000 Z" fill="#000"/>
  <path d="M 350.042857 711.000000 L 350.042857 380.500000 L 355.957143 380.500000 L 355.957143 711.000000 Z" fill="#000"/>
  <path d="M 356.614286 711.000000 L 356.614286 248.300000 L 362.528571 248.300000 L 362.528571 711.000000 Z" fill="#000"/>
  <path d="M 363.185714 711.000000 L 363.185714 314.400000 L 369.100000 314.400000 L 369.100000 711.000000 Z" fill="#000"/>
  <path d="M 369.757143 711.000000 L 369.757143 314.400000 L 375.671429 314.400000 L 375.671429 711.000000 Z" fill="#000"/>
  <path d="M 376.328571 711.000000 L 376.328571 347.450000 L 382.242857 347.450000 L 382.242857 711.000000 Z" fill="#000"/>
  <path d="M 382.900000 711.000000 L 382.900000 281.350000 L 388.814286 281.350000 L 388.814286 711.000000 Z" fill="#000"/>
  <path d="M 389.471429 711.000000 L 389.471429 248.300000 L 395.385714 248.300000 L 395.385714 711.000000 Z" fill="#000"/>
  <path d="M 396.042857 711.000000 L 396.042857 281.350000 L 401.957143 281.350000 L 401.957143 711.000000 Z" fill="#000"/>
  <path d="M 402.614286 711.000000 L 402.614286 314.400000 L 408.528571 314.400000 L 408.528571 711.000000 Z" fill="#000"/>
  <path d="M 409.185714 711.000000 L 409.185714 347.450000 L 415.100000 347.450000 L 415.100000 711.000000 Z" fill="#000"/>
  <path d="M 415.757143 711.000000 L 415.757143 347.450000 L 421.671429 347.450000 L 421.671429 711.000000 Z" fill="#000"/>
  <path d="M 422.328571 711.000000 L 422.328571 413.550000 L 428.242857 413.550000 L 428.242857 711.000000 Z" fill="#000"/>
  <path d="M 428.900000 711.000000 L 428.900000 380.500000 L 434.814286 380.500000 L 434.814286 711.000000 Z" fill="#000"/>
  <path d="M 435.471429 711.000000 L 435.471429 347.450000 L 441.385714 347.450000 L 441.385714 711.000000 Z" fill="#000"/>
  <path d="M 442.042857 711.000000 L 442.042857 281.350000 L 447.957143 281.350000 L 447.957143 711.000000 Z" fill="#000"/>
  <path d="M 448.614286 711.000000 L 448.614286 281.350000 L 454.528571 281.350000 L 454.528571 711.000000 Z" fill="#000"/>
  <path d="M 455.185714 711.000000 L 455.185714 281.350000 L 461.100000 281.350000 L 461.100000 711.000000 Z" fill="#000"/>
  <path d="M 461.757143 711.000000 L 461.757143 281.350000 L 467.671429 281.350000 L 467.671429 711.000000 Z" fill="#000"/>
  <path d="M 468.328571 711.000000 L 468.328571 347.450000 L 474.242857 347.450000 L 474.242857 711.000000 Z" fill="#000"/>
  <path d="M 474.900000 711.000000 L 474.900000 413.550000 L 480.814286 413.550000 L 480.814286 711.000000 Z" fill="#000"/>
  <path d="M 481.471429 711.000000 L 481.471429 380.500000 L 487.385714 380.500000 L 487.385714 711.000000 Z" fill="#000"/>
  <path d="M 488.042857 711.000000 L 488.042857 314.400000 L 493.957143 314.400000 L 493.957143 711.000000 Z" fill="#000"/>
  <path d="M 494.614286 711.000000 L 494.614286 281.350000 L 500.528571 281.350000 L 500.528571 711.000000 Z" fill="#000"/>
  <path d="M 501.185714 711.000000 L 501.185714 215.250000 L 507.100000 215.250000 L 507.100000 711.000000 Z" fill="#000"/>
  <path d="M 507.757143 711.000000 L 507.757143 314.400000 L 513.671429 314.400000 L 513.671429 711.000000 Z" fill="#000"/>
  <path d="M 514.328571 711.000000 L 514.328571 380.500000 L 520.242857 380.500000 L 520.242857 711.000000 Z" fill="#000"/>
  <path d="M 520.900000 711.000000 L 520.900000 380.500000 L 526.814286 380.500000 L 526.814286 711.000000 Z" fill="#000"/>
  <path d="M 527.471429 711.000000 L 527.471429 248.300000 L 533.385714 248.300000 L 533.385714 711.000000 Z" fill="#000"/>
  <path d="M 534.042857 711.000000 L 534.042857 281.350000 L 539.957143 281.350000 L 539.957143 711.000000 Z" fill="#000"/>
  <path d="M 540.614286 711.000000 L 540.614286 248.300000 L 546.528571 248.300000 L 546.528571 711.000000 Z" fill="#000"/>
  <path d="M 547.185714 711.000000 L 547.185714 281.350000 L 553.100000 281.350000 L 553.100000 711.000000 Z" fill="#000"/>
  <path d="M 553.757143 711.000000 L 553.757143 314.400000 L 559.671429 314.400000 L 559.671429 711.000000 Z" fill="#000"/>
  <path d="M 560.328571 711.000000 L 560.328571 281.350000 L 566.242857 281.350000 L 566.242857 711.000000 Z" fill="#000"/>
  <path d="M 566.900000 711.000000 L 566.900000 347.450000 L 572.814286 347.450000 L 572.814286 711.000000 Z" fill="#000"/>
  <path d="M 573.471429 711.000000 L 573.471429 248.300000 L 579.385714 248.300000 L 579.385714 711.000000 Z" fill="#000"/>
  <path d="M 580.042857 711.000000 L 580.042857 314.400000 L 585.957143 314.400000 L 585.957143 711.000000 Z" fill="#000"/>
  <path d="M 586.614286 711.000000 L 586.614286 248.300000 L 592.528571 248.300000 L 592.528571 711.000000 Z" fill="#000"/>
  <path d="M 593.185714 711.000000 L 593.185714 248.300000 L 599.100000 248.300000 L 599.100000 711.000000 Z" fill="#000"/>
  <path d="M 599.757143 711.000000 L 599.757143 314.400000 L 605.671429 314.400000 L 605.671429 711.000000 Z" fill="#000"/>
  <path d="M 606.328571 711.000000 L 606.328571 380.500000 L 612.242857 380.500000 L 612.242857 711.000000 Z" fill="#000"/>
  <path d="M 612.900000 711.000000 L 612.900000 380.500000 L 618.814286 380.500000 L 618.814286 711.000000 Z" fill="#000"/>
  <path d="M 619.471429 711.000000 L 619.471429 281.350000 L 625.385714 281.350000 L 625.385714 711.000000 Z" fill="#000"/>
  <path d="M 626.042857 711.000000 L 626.042857 281.350000 L 631.957143 281.350000 L 631.957143 711.000000 Z" fill="#000"/>
  <path d="M 632.614286 711.000000 L 632.614286 347.450000 L 638.528571 347.450000 L 638.528571 711.000000 Z" fill="#000"/>
  <path d="M 639.185714 711.000000 L 639.185714 281.350000 L 645.100000 281.350000 L 645.100000 711.000000 Z" fill="#000"/>
  <path d="M 645.757143 711.000000 L 645.757143 314.400000 L 651.671429 314.400000 L 651.671429 711.000000 Z" fill="#000"/>
  <path d="M 652.328571 711.000000 L 652.328571 314.400000 L 658.242857 314.400000 L 658.242857 711.000000 Z" fill="#000"/>
  <path d="M 658.900000 711.000000 L 658.900000 413.550000 L 664.814286 413.550000 L 664.814286 711.000000 Z" fill="#000"/>
  <path d="M 665.471429 711.000000 L 665.471429 314.400000 L 671.385714 314.400000 L 671.385714 711.000000 Z" fill="#000"/>
  <path d="M 672.042857 711.000000 L 672.042857 314.400000 L 677.957143 314.400000 L 677.957143 711.000000 Z" fill="#000"/>
  <path d="M 678.614286 711.000000 L 678.614286 281.350000 L 684.528571 281.350000 L 684.528571 711.000000 Z" fill="#000"/>
  <path d="M 685.185714 711.000000 L 685.185714 248.300000 L 691.100000 248.300000 L 691.100000 711.000000 Z" fill="#000"/>
  <path d="M 691.757143 711.000000 L 691.757143 281.350000 L 697.671429 281.350000 L 697.671429 711.000000 Z" fill="#000"/>
  <path d="M 698.328571 711.000000 L 698.328571 314.400000 L 704.242857 314.400000 L 704.242857 711.000000 Z" fill="#000"/>
  <path d="M 704.900000 711.000000 L 704.900000 347.450000 L 710.814286 347.450000 L 710.814286 711.000000 Z" fill="#000"/>
  <path d="M 711.471429 711.000000 L 711.471429 248.300000 L 717.385714 248.300000 L 717.385714 711.000000 Z" fill="#000"/>
  <path d="M 718.042857 711.000000 L 718.042857 347.450000 L 723.957143 347.450000 L 723.957143 711.000000 Z" fill="#000"/>
  <path d="M 724.614286 711.000000 L 724.614286 248.300000 L 730.528571 248.300000 L 730.528571 711.000000 Z" fill="#000"/>
  <path d="M 731.185714 711.000000 L 731.185714 248.300000 L 737.100000 248.300000 L 737.100000 711.000000 Z" fill="#000"/>
  <path d="M 737.757143 711.000000 L 737.757143 281.350000 L 743.671429 281.350000 L 743.671429 711.000000 Z" fill="#000"/>
  <path d="M 744.328571 711.000000 L 744.328571 314.400000 L 750.242857 314.400000 L 750.242857 711.000000 Z" fill="#000"/>
  <path d="M 750.900000 711.000000 L 750.900000 281.350000 L 756.814286 281.350000 L 756.814286 711.000000 Z" fill="#000"/>
  <path d="M 757.471429 711.000000 L 757.471429 347.450000 L 763.385714 347.450000 L 763.385714 711.000000 Z" fill="#000"/>
  <path d="M 764.042857 711.000000 L 764.042857 314.400000 L 769.957143 314.400000 L 769.957143 711.000000 Z" fill="#000"/>
  <path d="M 770.614286 711.000000 L 770.614286 248.300000 L 776.528571 248.300000 L 776.528571 711.000000 Z" fill="#000"/>
  <path d="M 777.185714 711.000000 L 777.185714 215.250000 L 783.100000 215.250000 L 783.100000 711.000000 Z" fill="#000"/>
  <path d="M 783.757143 711.000000 L 783.757143 314.400000 L 789.671429 314.400000 L 789.671429 711.000000 Z" fill="#000"/>
  <path d="M 790.328571 711.000000 L 790.328571 347.450000 L 796.242857 347.450000 L 796.242857 711.000000 Z" fill="#000"/>
  <path d="M 796.900000 711.000000 L 796.900000 314.400000 L 802.814286 314.400000 L 802.814286 711.000000 Z" fill="#000"/>
  <path d="M 803.471429 711.000000 L 803.471429 347.450000 L 809.385714 347.450000 L 809.385714 711.000000 Z" fill="#000"/>
  <path d="M 810.042857 711.000000 L 810.042857 248.300000 L 815.957143 248.300000 L 815.957143 711.000000 Z" fill="#000"/>
  <path d="M 816.614286 711.000000 L 816.614286 248.300000 L 822.528571 248.300000 L 822.528571 711.000000 Z" fill="#000"/>
  <path d="M 823.185714 711.000000 L 823.185714 281.350000 L 829.100000 281.350000 L 829.100000 711.000000 Z" fill="#000"/>
  <path d="M 829.757143 711.000000 L 829.757143 347.450000 L 835.671429 347.450000 L 835.671429 711.000000 Z" fill="#000"/>
  <path d="M 836.328571 711.000000 L 836.328571 314.400000 L 842.242857 314.400000 L 842.242857 711.000000 Z" fill="#000"/>
  <path d="M 842.900000 711.000000 L 842.900000 380.500000 L 848.814286 380.500000 L 848.814286 711.000000 Z" fill="#000"/>
  <path d="M 849.471429 711.000000 L 849.471429 248.300000 L 855.385714 248.300000 L 855.385714 711.000000 Z" fill="#000"/>
  <path d="M 856.042857 711.000000 L 856.042857 347.450000 L 861.957143 347.450000 L 861.957143 711.000000 Z" fill="#000"/>
  <path d="M 862.614286 711.000000 L 862.614286 281.350000 L 868.528571 281.350000 L 868.528571 711.000000 Z" fill="#000"/>
  <path d="M 869.185714 711.000000 L 869.185714 248.300000 L 875.100000 248.300000 L 875.100000 711.000000 Z" fill="#000"/>
  <path d="M 875.757143 711.000000 L 875.757143 281.350000 L 881.671429 281.350000 L 881.671429 711.000000 Z" fill="#000"/>
  <path d="M 882.328571 711.000000 L 882.328571 314.400000 L 888.242857 314.400000 L 888.242857 711.000000 Z" fill="#000"/>
  <path d="M 888.900000 711.000000 L 888.900000 281.350000 L 894.814286 281.350000 L 894.814286 711.000000 Z" fill="#000"/>
  <path d="M 895.471429 711.000000 L 895.471429 380.500000 L 901.385714 380.500000 L 901.385714 711.000000 Z" fill="#000"/>
  <path d="M 902.042857 711.000000 L 902.042857 215.250000 L 907.957143 215.250000 L 907.957143 711.000000 Z" fill="#000"/>
  <path d="M 908.614286 711.000000 L 908.614286 281.350000 L 914.528571 281.350000 L 914.528571 711.000000 Z" fill="#000"/>
  <path d="M 915.185714 711.000000 L 915.185714 215.250000 L 921.100000 215.250000 L 921.100000 711.000000 Z" fill="#000"/>
  <path d="M 921.757143 711.000000 L 921.757143 215.250000 L 927.671429 215.250000 L 927.671429 711.000000 Z" fill="#000"/>
  <path d="M 928.328571 711.000000 L 928.328571 347.450000 L 934.242857 347.450000 L 934.242857 711.000000 Z" fill="#000"/>
  <path d="M 934.900000 711.000000 L 934.900000 347.450000 L 940.814286 347.450000 L 940.814286 711.000000 Z" fill="#000"/>
  <path d="M 941.471429 711.000000 L 941.471429 248.300000 L 947.385714 248.300000 L 947.385714 711.000000 Z" fill="#000"/>
  <path d="M 948.042857 711.000000 L 948.042857 314.400000 L 953.957143 314.400000 L 953.957143 711.000000 Z" fill="#000"/>
  <path d="M 954.614286 711.000000 L 954.614286 281.350000 L 960.528571 281.350000 L 960.528571 711.000000 Z" fill="#000"/>
  <path d="M 961.185714 711.000000 L 961.185714 215.250000 L 967.100000 215.250000 L 967.100000 711.000000 Z" fill="#000"/>
  <path d="M 967.757143 711.000000 L 967.757143 413.550000 L 973.671429 413.550000 L 973.671429 711.000000 Z" fill="#000"/>
  <line stroke="#000" stroke-width="2" x1="100" x2="974" y1="711" y2="711"/>
  <line stroke="#000" stroke-width="2" x1="100" x2="100" y1="50" y2="711"/>
  <line stroke="#000" stroke-width="2" x1="95" x2="100" y1="50.0" y2="50.0"/>
  <line stroke="#000" stroke-width="2" x1="95" x2="100" y1="116.1" y2="116.1"/>
  <line stroke="#000" stroke-width="2" x1="95" x2="100" y1="182.2" y2="182.2"/>
  <line stroke="#000" stroke-width="2" x1="95" x2="100" y1="248.29999999999998" y2="248.29999999999998"/>
  <line stroke="#000" stroke-width="2" x1="95" x2="100" y1="314.4" y2="314.4"/>
  <line stroke="#000" stroke-width="2" x1="95" x2="100" y1="380.5" y2="380.5"/>
  <line stroke="#000" stroke-width="2" x1="95" x2="100" y1="446.59999999999997" y2="446.59999999999997"/>
  <line stroke="#000" stroke-width="2" x1="95" x2="100" y1="512.6999999999999" y2="512.6999999999999"/>
  <line stroke="#000" stroke-width="2" x1="95" x2="100" y1="578.8" y2="578.8"/>
  <line stroke="#000" stroke-width="2" x1="95" x2="100" y1="644.9" y2="644.9"/>
  <line stroke="#000" stroke-width="2" x1="103.28571428571429" x2="103.28571428571429" y1="711" y2="716"/>
  <line stroke="#000" stroke-width="2" x1="109.85714285714286" x2="109.85714285714286" y1="711" y2="716"/>
  <line stroke="#000" stroke-width="2" x1="116.42857142857143" x2="116.42857142857143" y1="711" y2="716"/>
  <line stroke="#000" stroke-width="2" x1="123.0" x2="123.0" y1="711" y2="716"/>
  <line stroke="#000" stroke-width="2" x1="129.57142857142856" x2="129.57142857142856" y1="711" y2="716"/>
  <line stroke="#000" stroke-width="2" x1="136.14285714285714" x2="136.14285714285714" y1="711" y2="716"/>
  <line stroke="#000" stroke-width="2" x1="142.71428571428572" x2="142.71428571428572" y1="711" y2="716"/>
  <line stroke="#000" stroke-width="2" x1="149.28571428571428" x2="149.28571428571428" y1="711" y2="716"/>
  <line stroke="#000" stroke-width="2" x1="155.85714285714286" x2="155.85714285714286" y1="711" y2="716"/>
  <line stroke="#000" stroke-width="2" x1="162.42857142857142" x2="162.42857142857142" y1="711" y2="716"/>
  <line stroke="#000" stroke-width="2" x1="169.0" x2="169.0" y1="711" y2="716"/>
  <line stroke="#000" stroke-width="2" x1="175.57142857142856" x2="175.57142857142856" y1="711" y2="716"/>
  <line stroke="#000" stroke-width="2" x1="182.14285714285714" x2="182.14285714285714" y1="711" y2="716"/>
  <line stroke="#000" stroke-width="2" x1="188.71428571428572" x2="188.71428571428572" y1="711" y2="716"/>
  <line stroke="#000" stroke-width="2" x1="195.28571428571428" x2="195.28571428571428" y1="711" y2="716"/>
  <line stroke="#000" stroke-width="2" x1="201.85714285714283" x2="201.85714285714283" y1="711" y2="716"/>
  <line stroke="#000" stroke-width="2" x1="208.42857142857144" x2="208.42857142857144" y1="711" y2="716"/>
  <line stroke="#000" stroke-width="2" x1="215.0" x2="215.0" y1="711" y2="716"/>
  <line stroke="#000" stroke-width="2" x1="221.57142857142856" x2="221.57142857142856" y1="711" y2="716"/>
  <line stroke="#000" stroke-width="2" x1="228.14285714285714" x2="228.14285714285714" y1="711" y2="716"/>
  <line stroke="#000" stroke-width="2" x1="234.71428571428572" x2="234.71428571428572" y1="711" y2="716"/>
  <line stroke="#000" stroke-width="2" x1="241.28571428571428" x2="241.28571428571428" y1="711" y2="716"/>
  <line stroke="#000" stroke-width="2" x1="247.85714285714286" x2="247.85714285714286" y1="711" y2="716"/>
  <line stroke="#000" stroke-width="2" x1="254.42857142857142" x2="254.42857142857142" y1="711" y2="716"/>
  <line stroke="#000" stroke-width="2" x1="261.0" x2="261.0" y1="711" y2="716"/>
  <line stroke="#000" stroke-width="2" x1="267.57142857142856" x2="267.57142857142856" y1="711" y2="716"/>
  <line stroke="#000" stroke-width="2" x1="274.1428571428571" x2="274.1428571428571" y1="711" y2="716"/>
  <line stroke="#000" stroke-width="2" x1="280.71428571428567" x2="280.71428571428567" y1="711" y2="716"/>
  <line stroke="#000" stroke-width="2" x1="287.2857142857143" x2="287.2857142857143" y1="711" y2="716"/>
  <line stroke="#000" stroke-width="2" x1="293.8571428571429" x2="293.8571428571429" y1="711" y2="716"/>
  <line stroke="#000" stroke-width="2" x1="300.42857142857144" x2="300.42857142857144" y1="711" y2="716"/>
  <line stroke="#000" stroke-width="2" x1="307.0" x2="307.0" y1="711" y2="716"/>
  <line stroke="#000" stroke-width="2" x1="313.57142857142856" x2="313.57142857142856" y1="711" y2="716"/>
  <line stroke="#000" stroke-width="2" x1="320.1428571428571" x2="320.1428571428571" y1="711" y2="716"/>
  <line stroke="#000" stroke-width="2" x1="326.71428571428567" x2="326.71428571428567" y1="711" y2="716"/>
  <line stroke="#000" stroke-width="2" x1="333.2857142857143" x2="333.2857142857143" y1="711" y2="716"/>
  <line stroke="#000" stroke-width="2" x1="339.8571428571429" x2="339.8571428571429" y1="711" y2="716"/>
  <line stroke="#000" stroke-width="2" x1="346.42857142857144" x2="346.42857142857144" y1="711" y2="716"/>
  <line stroke="#000" stroke-width="2" x1="353.0" x2="353.0" y1="711" y2="716"/>
  <line stroke="#000" stroke-width="2" x1="359.57142857142856" x2="359.57142857142856" y1="711" y2="716"/>
  <line stroke="#000" stroke-width="2" x1="366.1428571428571" x2="366.1428571428571" y1="711" y2="716"/>
  <line stroke="#000" stroke-width="2" x1="372.7142857142857" x2="372.7142857142857" y1="711" y2="716"/>
  <line stroke="#000" stroke-width="2" x1="379.2857142857143" x2="379.2857142857143" y1="711" y2="716"/>
  <line stroke="#000" stroke-width="2" x1="385.85714285714283" x2="385.85714285714283" y1="711" y2="716"/>
  <line stroke="#000" stroke-width="2" x1="392.42857142857144" x2="392.42857142857144" y1="711" y2="716"/>
  <line stroke="#000" stroke-width="2" x1="399.0" x2="399.0" y1="711" y2="716"/>
  <line stroke="#000" stroke-width="2" x1="405.57142857142856" x2="405.57142857142856" y1="711" y2="716"/>
  <line stroke="#000" stroke-width="2" x1="412.1428571428571" x2="412.1428571428571" y1="711" y2="716"/>
  <line stroke="#000" stroke-width="2" x1="418.7142857142857" x2="418.7142857142857" y1="711" y2="716"/>
  <line stroke="#000" stroke-width="2" x1="425.2857142857143" x2="425.2857142857143" y1="711" y2="716"/>
  <line stroke="#000" stroke-width="2" x1="431.85714285714283" x2="431.85714285714283" y1="711" y2="716"/>
  <line stroke="#000" stroke-width="2" x1="438.4285714285714" x2="438.4285714285714" y1="711" y2="716"/>
  <line stroke="#000" stroke-width="2" x1="445.0" x2="445.0" y1="711" y2="716"/>
  <line stroke="#000" stroke-width="2" x1="451.57142857142856" x2="451.57142857142856" y1="711" y2="716"/>
  <line stroke="#000" stroke-width="2" x1="458.1428571428571" x2="458.1428571428571" y1="711" y2="716"/>
  <line stroke="#000" stroke-width="2" x1="464.7142857142857" x2="464.7142857142857" y1="711" y2="716"/>
  <line stroke="#000" stroke-width="2" x1="471.2857142857143" x2="471.2857142857143" y1="711" y2="716"/>
  <line stroke="#000" stroke-width="2" x1="477.85714285714283" x2="477.85714285714283" y1="711" y2="716"/>
  <line stroke="#000" stroke-width="2" x1="484.4285714285714" x2="484.4285714285714" y1="711" y2="716"/>
  <line stroke="#000" stroke-width="2" x1="491.0" x2="491.0" y1="711" y2="716"/>
  <line stroke="#000" stroke-width="2" x1="497.57142857142856" x2="497.57142857142856" y1="711" y2="716"/>
  <line stroke="#000" stroke-width="2" x1="504.1428571428571" x2="504.1428571428571" y1="711" y2="716"/>
  <line stroke="#000" stroke-width="2" x1="510.7142857142857" x2="510.7142857142857" y1="711" y2="716"/>
  <line stroke="#000" stroke-width="2" x1="517.2857142857142" x2="517.2857142857142" y1="711" y2="716"/>
  <line stroke="#000" stroke-width="2" x1="523.8571428571429" x2="523.8571428571429" y1="711" y2="716"/>
  <line stroke="#000" stroke-width="2" x1="530.4285714285713" x2="530.4285714285713" y1="711" y2="716"/>
  <line stroke="#000" stroke-width="2" x1="537.0" x2="537.0" y1="711" y2="716"/>
  <line stroke="#000" stroke-width="2" x1="543.5714285714286" x2="543.5714285714286" y1="711" y2="716"/>
  <line stroke="#000" stroke-width="2" x1="550.1428571428571" x2="550.1428571428571" y1="711" y2="716"/>
  <line stroke="#000" stroke-width="2" x1="556.7142857142858" x2="556.7142857142858" y1="711" y2="716"/>
  <line stroke="#000" stroke-width="2" x1="563.2857142857142" x2="563.2857142857142" y1="711" y2="716"/>
  <line stroke="#000" stroke-width="2" x1="569.8571428571429" x2="569.8571428571429" y1="711" y2="716"/>
  <line stroke="#000" stroke-width="2" x1="576.4285714285713" x2="576.4285714285713" y1="711" y2="716"/>
  <line stroke="#000" stroke-width="2" x1="583.0" x2="583.0" y1="711" y2="716"/>
  <line stroke="#000" stroke-width="2" x1="589.5714285714286" x2="589.5714285714286" y1="711" y2="716"/>
  <line stroke="#000" stroke-width="2" x1="596.1428571428571" x2="596.1428571428571" y1="711" y2="716"/>
  <line stroke="#000" stroke-width="2" x1="602.7142857142858" x2="602.7142857142858" y1="711" y2="716"/>
  <line stroke="#000" stroke-width="2" x1="609.2857142857142" x2="609.2857142857142" y1="711" y2="716"/>
  <line stroke="#000" stroke-width="2" x1="615.8571428571429" x2="615.8571428571429" y1="711" y2="716"/>
  <line stroke="#000" stroke-width="2" x1="622.4285714285714" x2="622.4285714285714" y1="711" y2="716"/>
  <line stroke="#000" stroke-width="2" x1="629.0" x2="629.0" y1="711" y2="716"/>
  <line stroke="#000" stroke-width="2" x1="635.5714285714286" x2="635.5714285714286" y1="711" y2="716"/>
  <line stroke="#000" stroke-width="2" x1="642.1428571428571" x2="642.1428571428571" y1="711" y2="716"/>
  <line stroke="#000" stroke-width="2" x1="648.7142857142857" x2="648.7142857142857" y1="711" y2="716"/>
  <line stroke="#000" stroke-width="2" x1="655.2857142857142" x2="655.2857142857142" y1="711" y2="716"/>
  <line stroke="#000" stroke-width="2" x1="661.8571428571429" x2="661.8571428571429" y1="711" y2="716"/>
  <line stroke="#000" stroke-width="2" x1="668.4285714285714" x2="668.4285714285714" y1="711" y2="716"/>
  <line stroke="#000" stroke-width="2" x1="675.0" x2="675.0" y1="711" y2="716"/>
  <line stroke="#000" stroke-width="2" x1="681.5714285714286" x2="681.5714285714286" y1="711" y2="716"/>
  <line stroke="#000" stroke-width="2" x1="688.1428571428571" x2="688.1428571428571" y1="711" y2="716"/>
  <line stroke="#000" stroke-width="2" x1="694.7142857142857" x2="694.7142857142857" y1="711" y2="716"/>
  <line stroke="#000" stroke-width="2" x1="701.2857142857142" x2="701.2857142857142" y1="711" y2="716"/>
  <line stroke="#000" stroke-width="2" x1="707.8571428571429" x2="707.8571428571429" y1="711" y2="716"/>
  <line stroke="#000" stroke-width="2" x1="714.4285714285714" x2="714.4285714285714" y1="711" y2="716"/>
  <line stroke="#000" stroke-width="2" x1="721.0" x2="721.0" y1="711" y2="716"/>
  <line stroke="#000" stroke-width="2" x1="727.5714285714286" x2="727.5714285714286" y1="711" y2="716"/>
  <line stroke="#000" stroke-width="2" x1="734.1428571428571" x2="734.1428571428571" y1="711" y2="716"/>
  <line stroke="#000" stroke-width="2" x1="740.7142857142857" x2="740.7142857142857" y1="711" y2="716"/>
  <line stroke="#000" stroke-width="2" x1="747.2857142857142" x2="747.2857142857142" y1="711" y2="716"/>
  <line stroke="#000" stroke-width="2" x1="753.8571428571428" x2="753.8571428571428" y1="711" y2="716"/>
  <line stroke="#000" stroke-width="2" x1="760.4285714285714" x2="760.4285714285714" y1="711" y2="716"/>
  <line stroke="#000" stroke-width="2" x1="767.0" x2="767.0" y1="711" y2="716"/>
  <line stroke="#000" stroke-width="2" x1="773.5714285714286" x2="773.5714285714286" y1="711" y2="716"/>
  <line stroke="#000" stroke-width="2" x1="780.1428571428571" x2="780.1428571428571" y1="711" y2="716"/>
  <line stroke="#000" stroke-width="2" x1="786.7142857142857" x2="786.7142857142857" y1="711" y2="716"/>
  <line stroke="#000" stroke-width="2" x1="793.2857142857142" x2="793.2857142857142" y1="711" y2="716"/>
  <line stroke="#000" stroke-width="2" x1="799.8571428571428" x2="799.8571428571428" y1="711" y2="716"/>
  <line stroke="#000" stroke-width="2" x1="806.4285714285714" x2="806.4285714285714" y1="711" y2="716"/>
  <line stroke="#000" stroke-width="2" x1="813.0" x2="813.0" y1="711" y2="716"/>
  <line stroke="#000" stroke-width="2" x1="819.5714285714286" x2="819.5714285714286" y1="711" y2="716"/>
  <line stroke="#000" stroke-width="2" x1="826.1428571428571" x2="826.1428571428571" y1="711" y2="716"/>
  <line stroke="#000" stroke-width="2" x1="832.7142857142857" x2="832.7142857142857" y1="711" y2="716"/>
  <line stroke="#000" stroke-width="2" x1="839.2857142857142" x2="839.2857142857142" y1="711" y2="716"/>
  <line stroke="#000" stroke-width="2" x1="845.8571428571428" x2="845.8571428571428" y1="711" y2="716"/>
  <line stroke="#000" stroke-width="2" x1="852.4285714285714" x2="852.4285714285714" y1="711" y2="716"/>
  <line stroke="#000" stroke-width="2" x1="859.0" x2="859.0" y1="711" y2="716"/>
  <line stroke="#000" stroke-width="2" x1="865.5714285714286" x2="865.5714285714286" y1="711" y2="716"/>
  <line stroke="#000" stroke-width="2" x1="872.1428571428571" x2="872.1428571428571" y1="711" y2="716"/>
  <line stroke="#000" stroke-width="2" x1="878.7142857142857" x2="878.7142857142857" y1="711" y2="716"/>
  <line stroke="#000" stroke-width="2" x1="885.2857142857142" x2="885.2857142857142" y1="711" y2="716"/>
  <line stroke="#000" stroke-width="2" x1="891.8571428571428" x2="891.8571428571428" y1="711" y2="716"/>
  <line stroke="#000" stroke-width="2" x1="898.4285714285714" x2="898.4285714285714" y1="711" y2="716"/>
  <line stroke="#000" stroke-width="2" x1="905.0" x2="905.0" y1="711" y2="716"/>
  <line stroke="#000" stroke-width="2" x1="911.5714285714286" x2="911.5714285714286" y1="711" y2="716"/>
  <line stroke="#000" stroke-width="2" x1="918.1428571428571" x2="918.1428571428571" y1="711" y2="716"/>
  <line stroke="#000" stroke-width="2" x1="924.7142857142857" x2="924.7142857142857" y1="711" y2="716"/>
  <line stroke="#000" stroke-width="2" x1="931.2857142857142" x2="931.2857142857142" y1="711" y2="716"/>
  <line stroke="#000" stroke-width="2" x1="937.8571428571428" x2="937.8571428571428" y1="711" y2="716"/>
  <line stroke="#000" stroke-width="2" x1="944.4285714285714" x2="944.4285714285714" y1="711" y2="716"/>
  <line stroke="#000" stroke-width="2" x1="951.0" x2="951.0" y1="711" y2="716"/>
  <line stroke="#000" stroke-width="2" x1="957.5714285714286" x2="957.5714285714286" y1="711" y2="716"/>
  <line stroke="#000" stroke-width="2" x1="964.1428571428571" x2="964.1428571428571" y1="711" y2="716"/>
  <line stroke="#000" stroke-width="2" x1="970.7142857142857" x2="970.7142857142857" y1="711" y2="716"/>
  <svg height="20.0" width="50.0" x="40.0" y="704.1733333333333">
    <defs/>
    <text dominant-baseline="middle" text-anchor="end" x="100%" y="50%">0</text>
  </svg>
  <svg height="20.0" width="50.0" x="40.0" y="638.0733333333333">
    <defs/>
    <text dominant-baseline="middle" text-anchor="end" x="100%" y="50%">2</text>
  </svg>
  <svg height="20.0" width="50.0" x="40.0" y="571.9733333333332">
    <defs/>
    <text dominant-baseline="middle" text-anchor="end" x="100%" y="50%">4</text>
  </svg>
  <svg height="20.0" width="50.0" x="40.0" y="505.8733333333334">
    <defs/>
    <text dominant-baseline="middle" text-anchor="end" x="100%" y="50%">6</text>
  </svg>
  <svg height="20.0" width="50.0" x="40.0" y="439.77333333333337">
    <defs/>
    <text dominant-baseline="middle" text-anchor="end" x="100%" y="50%">8</text>
  </svg>
  <svg height="20.0" width="50.0" x="40.0" y="373.67333333333335">
    <defs/>
    <text dominant-baseline="middle" text-anchor="end" x="100%" y="50%">10</text>
  </svg>
  <svg height="20.0" width="50.0" x="40.0" y="307.5733333333334">
    <defs/>
    <text dominant-baseline="middle" text-anchor="end" x="100%" y="50%">12</text>
  </svg>
  <svg height="20.0" width="50.0" x="40.0" y="241.47333333333341">
    <defs/>
    <text dominant-baseline="middle" text-anchor="end" x="100%" y="50%">14</text>
  </svg>
  <svg height="20.0" width="50.0" x="40.0" y="175.3733333333334">
    <defs/>
    <text dominant-baseline="middle" text-anchor="end" x="100%" y="50%">16</text>
  </svg>
  <svg height="20.0" width="50.0" x="40.0" y="109.27333333333335">
    <defs/>
    <text dominant-baseline="middle" text-anchor="end" x="100%" y="50%">18</text>
  </svg>
  <svg height="20.0" width="50.0" x="40.0" y="43.17333333333333">
    <defs/>
    <text dominant-baseline="middle" text-anchor="end" x="100%" y="50%">20</text>
  </svg>
  <svg height="75" overflow="visible" width="61.44" x="72.5657142857143" y="731">
    <defs/>
    <text dominant-baseline="middle" dy="0" text-anchor="middle" x="50%" y="0%">29 Jul</text>
  </svg>
  <svg height="75" overflow="visible" width="61.44" x="72.5657142857143" y="731">
    <defs/>
    <text dominant-baseline="middle" dy="15.36" text-anchor="middle" x="50%" y="0%">2023</text>
  </svg>
  <svg height="75" overflow="visible" width="61.44" x="131.70857142857147" y="731">
    <defs/>
    <text dominant-baseline="middle" dy="0" text-anchor="middle" x="50%" y="0%">7 Aug</text>
  </svg>
  <svg height="75" overflow="visible" width="61.44" x="131.70857142857147" y="731">
    <defs/>
    <text dominant-baseline="middle" dy="15.36" text-anchor="middle" x="50%" y="0%">2023</text>
  </svg>
  <svg height="75" overflow="visible" width="61.44" x="190.85142857142873" y="731">
    <defs/>
    <text dominant-baseline="middle" dy="0" text-anchor="middle" x="50%" y="0%">16 Aug</text>
  </svg>
  <svg height="75" overflow="visible" width="61.44" x="190.85142857142873" y="731">
    <defs/>
    <text dominant-baseline="middle" dy="15.36" text-anchor="middle" x="50%" y="0%">2023</text>
  </svg>
  <svg height="75" overflow="visible" width="61.44" x="249.9942857142859" y="731">
    <defs/>
    <text dominant-baseline="middle" dy="0" text-anchor="middle" x="50%" y="0%">25 Aug</text>
  </svg>
  <svg height="75" overflow="visible" width="61.44" x="249.9942857142859" y="731">
    <defs/>
    <text dominant-baseline="middle" dy="15.36" text-anchor="middle" x="50%" y="0%">2023</text>
  </svg>
  <svg height="75" overflow="visible" width="61.44" x="309.13714285714286" y="731">
    <defs/>
    <text dominant-baseline="middle" dy="0" text-anchor="middle" x="50%" y="0%">3 Sep</text>
  </svg>
  <svg height="75" overflow="visible" width="61.44" x="309.13714285714286" y="731">
    <defs/>
    <text dominant-baseline="middle" dy="15.36" text-anchor="middle" x="50%" y="0%">2023</text>
  </svg>
  <svg height="75" overflow="visible" width="61.44" x="368.27999999999986" y="731">
    <defs/>
    <text dominant-baseline="middle" dy="0" text-anchor="middle" x="50%" y="0%">12 Sep</text>
  </svg>
  <svg height="75" overflow="visible" width="61.44" x="368.27999999999986" y="731">
    <defs/>
    <text dominant-baseline="middle" dy="15.36" text-anchor="middle" x="50%" y="0%">2023</text>
  </svg>
  <svg height="75" overflow="visible" width="61.44" x="427.42285714285686" y="731">
    <defs/>
    <text dominant-baseline="middle" dy="0" text-anchor="middle" x="50%" y="0%">21 Sep</text>
  </svg>
  <svg height="75" overflow="visible" width="61.44" x="427.42285714285686" y="731">
    <defs/>
    <text dominant-baseline="middle" dy="15.36" text-anchor="middle" x="50%" y="0%">2023</text>
  </svg>
  <svg height="75" overflow="visible" width="61.44" x="486.56571428571397" y="731">
    <defs/>
    <text dominant-baseline="middle" dy="0" text-anchor="middle" x="50%" y="0%">30 Sep</text>
  </svg>
  <svg height="75" overflow="visible" width="61.44" x="486.56571428571397" y="731">
    <defs/>
    <text dominant-baseline="middle" dy="15.36" text-anchor="middle" x="50%" y="0%">2023</text>
  </svg>
  <svg height="75" overflow="visible" width="61.44" x="545.708571428571" y="731">
    <defs/>
    <text dominant-baseline="middle" dy="0" text-anchor="middle" x="50%" y="0%">9 Oct</text>
  </svg>
  <svg height="75" overflow="visible" width="61.44" x="545.708571428571" y="731">
    <defs/>
    <text dominant-baseline="middle" dy="15.36" text-anchor="middle" x="50%" y="0%">2023</text>
  </svg>
  <svg height="75" overflow="visible" width="61.44" x="604.851428571428" y="731">
    <defs/>
    <text dominant-baseline="middle" dy="0" text-anchor="middle" x="50%" y="0%">18 Oct</text>
  </svg>
  <svg height="75" overflow="visible" width="61.44" x="604.851428571428" y="731">
    <defs/>
    <text dominant-baseline="middle" dy="15.36" text-anchor="middle" x="50%" y="0%">2023</text>
  </svg>
  <svg height="75" overflow="visible" width="61.44" x="663.994285714285" y="731">
    <defs/>
    <text dominant-baseline="middle" dy="0" text-anchor="middle" x="50%" y="0%">27 Oct</text>
  </svg>
  <svg height="75" overflow="visible" width="61.44" x="663.994285714285" y="731">
    <defs/>
    <text dominant-baseline="middle" dy="15.36" text-anchor="middle" x="50%" y="0%">2023</text>
  </svg>
  <svg height="75" overflow="visible" width="61.44" x="723.137142857142" y="731">
    <defs/>
    <text dominant-baseline="middle" dy="0" text-anchor="middle" x="50%" y="0%">5 Nov</text>
  </svg>
  <svg height="75" overflow="visible" width="61.44" x="723.137142857142" y="731">
    <defs/>
    <text dominant-baseline="middle" dy="15.36" text-anchor="middle" x="50%" y="0%">2023</text>
  </svg>
  <svg height="75" overflow="visible" width="61.44" x="782.279999999999" y="731">
    <defs/>
    <text dominant-baseline="middle" dy="0" text-anchor="middle" x="50%" y="0%">14 Nov</text>
  </svg>
  <svg height="75" overflow="visible" width="61.44" x="782.279999999999" y="731">
    <defs/>
    <text dominant-baseline="middle" dy="15.36" text-anchor="middle" x="50%" y="0%">2023</text>
  </svg>
  <svg height="75" overflow="visible" width="61.44" x="841.422857142856" y="731">
    <defs/>
    <text dominant-baseline="middle" dy="0" text-anchor="middle" x="50%" y="0%">23 Nov</text>
  </svg>
  <svg height="75" overflow="visible" width="61.44" x="841.422857142856" y="731">
    <defs/>
    <text dominant-baseline="middle" dy="15.36" text-anchor="middle" x="50%" y="0%">2023</text>
  </svg>
  <svg height="75" overflow="visible" width="61.44" x="900.5657142857129" y="731">
    <defs/>
    <text dominant-baseline="middle" dy="0" text-anchor="middle" x="50%" y="0%">2 Dec</text>
  </svg>
  <svg height="75" overflow="visible" width="61.44" x="900.5657142857129" y="731">
    <defs/>
    <text dominant-baseline="middle" dy="15.36" text-anchor="middle" x="50%" y="0%">2023</text>
  </svg>
</svg>
