<svg width="1280" height="720" xmlns="http://www.w3.org/2000/svg" xmlns:xlink="http://www.w3.org/1999/xlink" overflow="hidden"><g><rect x="0" y="0" width="1280" height="720" fill="#FFFFFF"/><path d="M108 633C190.778 417 398.611 275.25 731.5 207.75L724.655 147 853 239.418 750.957 380.435 744.112 319.686C444.204 346.686 232.167 451.124 108 633Z" fill="#662938" fill-rule="evenodd"/><g><g><g><path d="M36.7778 0C16.4925 0 0 16.4925 0 36.7778L0 257.444C0 277.73 16.4925 294.222 36.7778 294.222L183.889 294.222C204.174 294.222 220.667 277.73 220.667 257.444L220.667 246.354C219.115 246.986 217.564 247.503 215.955 247.905L181.418 256.525C179.694 256.927 177.97 257.215 176.246 257.329 175.729 257.387 175.212 257.444 174.694 257.444L137.917 257.444C134.411 257.444 131.251 255.491 129.699 252.388L124.642 242.216C123.665 240.262 121.711 239.056 119.585 239.056 117.459 239.056 115.448 240.262 114.528 242.216L109.471 252.388C107.805 255.778 104.185 257.789 100.449 257.444 96.7141 257.1 93.496 254.514 92.4616 250.951L82.75 218.943 77.1184 237.791C73.613 249.457 62.867 257.444 50.6844 257.444L45.9722 257.444C40.9153 257.444 36.7778 253.307 36.7778 248.25 36.7778 243.193 40.9153 239.056 45.9722 239.056L50.6844 239.056C54.7644 239.056 58.3273 236.412 59.4766 232.505L68.0389 204.059C69.9927 197.566 75.9691 193.083 82.75 193.083 89.5309 193.083 95.5073 197.566 97.4611 204.059L104.127 226.241C108.38 222.678 113.781 220.667 119.528 220.667 128.665 220.667 136.997 225.839 141.077 233.999L143.606 239.056 148.72 239.056C146.939 233.999 146.594 228.482 147.916 223.08L156.535 188.544C158.144 182.05 161.477 176.189 166.19 171.476L220.667 116.999 220.667 91.9444 147.111 91.9444C136.94 91.9444 128.722 83.7269 128.722 73.5556L128.722 0 36.7778 0ZM147.111 0 147.111 73.5556 220.667 73.5556 147.111 0ZM315.944 80.279C306.98 71.3144 292.441 71.3144 283.419 80.279L266.524 97.1738 307.324 137.974 324.219 121.079C333.184 112.115 333.184 97.576 324.219 88.554L315.944 80.279ZM179.234 184.464C176.878 186.82 175.212 189.75 174.407 193.026L165.787 227.562C164.983 230.723 165.902 233.999 168.201 236.297 170.499 238.596 173.775 239.515 176.936 238.711L211.472 230.091C214.69 229.286 217.678 227.62 220.035 225.264L294.28 150.961 253.479 110.161 179.234 184.464Z" stroke="#FFFFFF" stroke-width="1.33333" fill="#C50F3C" transform="matrix(1 0 0 1.00264 880 107)"/></g></g></g><path d="M673.206 226.113 654.771 216.836C671.045 186.757 659.991 150.171 630.082 135.12 600.172 120.068 562.734 132.251 546.46 162.33 538.864 176.37 536.953 192.58 541.125 207.579L550.72 199.75 544.294 235.536 514.32 229.449 524.088 221.479C507.39 180.039 528.116 132.165 570.381 114.549 612.646 96.9334 660.445 116.247 677.143 157.687 686.015 179.705 684.576 204.724 673.206 226.113Z" stroke="#FFFFFF" stroke-width="1.33333" stroke-miterlimit="8" fill="#C50F3C" fill-rule="evenodd"/><g><g><g><path d="M53.6667 32.5833 53.6667 0 5.75 0C2.56354 0 0 2.56354 0 5.75L0 116.917C0 120.103 2.56354 122.667 5.75 122.667L86.25 122.667C89.4365 122.667 92 120.103 92 116.917L92 38.3333 59.4167 38.3333C56.2542 38.3333 53.6667 35.7458 53.6667 32.5833ZM69 89.125C69 90.7063 67.7063 92 66.125 92L25.875 92C24.2938 92 23 90.7063 23 89.125L23 87.2083C23 85.6271 24.2938 84.3333 25.875 84.3333L66.125 84.3333C67.7063 84.3333 69 85.6271 69 87.2083L69 89.125ZM69 73.7917C69 75.3729 67.7063 76.6667 66.125 76.6667L25.875 76.6667C24.2938 76.6667 23 75.3729 23 73.7917L23 71.875C23 70.2937 24.2938 69 25.875 69L66.125 69C67.7063 69 69 70.2937 69 71.875L69 73.7917ZM69 56.5417 69 58.4583C69 60.0396 67.7063 61.3333 66.125 61.3333L25.875 61.3333C24.2938 61.3333 23 60.0396 23 58.4583L23 56.5417C23 54.9604 24.2938 53.6667 25.875 53.6667L66.125 53.6667C67.7063 53.6667 69 54.9604 69 56.5417ZM92 29.2052 92 30.6667 61.3333 30.6667 61.3333 0 62.7948 0C64.3281 0 65.7896 0.598958 66.8677 1.67708L90.3229 25.1562C91.401 26.2344 92 27.6958 92 29.2052Z" fill="#C50F3C" transform="matrix(1 0 0 1.125 562 212)"/></g></g></g><text fill="#971B2F" font-family="Noto Mono for Powerline,Noto Mono for Powerline_MSFontService,sans-serif" font-weight="400" font-size="24" transform="translate(106.708 667)">Präsentation</text><text fill="#971B2F" font-family="Noto Mono for Powerline,Noto Mono for Powerline_MSFontService,sans-serif" font-weight="400" font-size="19" transform="translate(106.708 691)">(20 Pkt.)</text><text fill="#AA2C3D" font-family="Noto Mono for Powerline,Noto Mono for Powerline_MSFontService,sans-serif" font-weight="400" font-size="32" transform="translate(877.799 447)">Short</text><text fill="#AA2C3D" font-family="Noto Mono for Powerline,Noto Mono for Powerline_MSFontService,sans-serif" font-weight="400" font-size="32" transform="translate(992.799 447)">report</text><text fill="#AA2C3D" font-family="Noto Mono for Powerline,Noto Mono for Powerline_MSFontService,sans-serif" font-weight="400" font-size="19" transform="translate(877.799 473)">(40 Pkt.)</text><g><g><g><path d="M206.768 602.665C206.768 607.105 203.168 610.704 198.728 610.704 194.288 610.704 190.689 607.105 190.689 602.665 190.689 598.224 194.288 594.625 198.728 594.625 203.168 594.625 206.768 598.224 206.768 602.665Z" fill="#C50F3C"/><path d="M214.542 628.979 214.542 620.94C214.515 619.687 213.931 618.511 212.948 617.734 210.638 615.954 207.994 614.653 205.174 613.909 203.045 613.256 200.831 612.922 198.604 612.918 196.38 612.952 194.17 613.286 192.034 613.909 189.245 614.735 186.617 616.029 184.26 617.734 183.277 618.511 182.693 619.687 182.667 620.94L182.667 628.979Z" fill="#C50F3C"/><path d="M241.936 602.665C241.936 607.105 238.337 610.704 233.897 610.704 229.457 610.704 225.857 607.105 225.857 602.665 225.857 598.224 229.457 594.625 233.897 594.625 238.337 594.625 241.936 598.224 241.936 602.665Z" fill="#C50F3C"/><path d="M249.958 628.979 249.958 620.94C249.932 619.687 249.348 618.511 248.365 617.734 246.054 615.954 243.411 614.653 240.591 613.909 238.462 613.256 236.248 612.922 234.021 612.918 231.796 612.952 229.586 613.286 227.451 613.909 224.662 614.735 222.033 616.029 219.677 617.734 218.694 618.511 218.11 619.687 218.083 620.94L218.083 628.979Z" fill="#C50F3C"/><path d="M277.353 602.665C277.353 607.105 273.754 610.704 269.314 610.704 264.873 610.704 261.274 607.105 261.274 602.665 261.274 598.224 264.873 594.625 269.314 594.625 273.754 594.625 277.353 598.224 277.353 602.665Z" fill="#C50F3C"/><path d="M285.375 628.979 285.375 620.94C285.349 619.687 284.764 618.511 283.781 617.734 281.471 615.954 278.828 614.653 276.007 613.909 273.878 613.256 271.664 612.922 269.438 612.918 267.213 612.952 265.003 613.286 262.868 613.909 260.079 614.735 257.45 616.029 255.094 617.734 254.111 618.511 253.526 619.687 253.5 620.94L253.5 628.979Z" fill="#C50F3C"/><path d="M174.556 528.325C174.556 534.134 169.847 538.844 164.038 538.844 158.228 538.844 153.519 534.134 153.519 528.325 153.519 522.516 158.228 517.806 164.038 517.806 169.847 517.806 174.556 522.516 174.556 528.325Z" fill="#C50F3C"/><path d="M226.07 524.27C225.029 523.244 223.357 523.244 222.316 524.27L199.436 547.149C197.608 546.633 195.643 547.133 194.283 548.459 193.911 548.831 187.306 559.633 187.306 559.633L185.323 551.186C185.06 550.097 184.517 549.096 183.747 548.282 180.483 545.644 176.727 543.682 172.697 542.509 169.848 541.9 166.95 541.55 164.038 541.465 161.1 541.51 158.181 541.951 155.36 542.775 151.294 543.841 147.522 545.815 144.328 548.548 143.551 549.357 143.007 550.36 142.752 551.452 142.752 551.452 135.12 583.504 135.12 584.035 135.12 586.969 137.498 589.348 140.432 589.348 142.784 589.288 144.815 587.688 145.426 585.417L150.951 562.555 150.951 636.062 161.417 636.062 161.417 588.764 166.729 588.764 166.729 636.062 177.177 636.062 177.177 562.219 179.125 570.542C179.26 571.117 179.642 571.603 180.17 571.87 182.206 573.433 184.687 574.307 187.253 574.367 188.924 574.601 190.58 573.849 191.503 572.436L202.305 554.728C202.996 553.639 203.255 552.332 203.031 551.062L226.052 528.042C227.095 527.003 227.103 525.318 226.07 524.27Z" fill="#C50F3C"/><path d="M262.354 499.708 175.583 499.708C171.671 499.708 168.5 502.88 168.5 506.792L168.5 513.167C171.208 513.904 173.659 515.375 175.583 517.417L175.583 506.792 262.354 506.792 262.354 565.229 201.916 565.229 197.595 572.312 262.354 572.312C266.266 572.312 269.438 569.141 269.438 565.229L269.438 506.792C269.438 502.88 266.266 499.708 262.354 499.708Z" fill="#C50F3C"/></g></g></g><path d="M336.5 390.5C336.5 383.873 341.873 378.5 348.5 378.5 355.127 378.5 360.5 383.873 360.5 390.5 360.5 397.127 355.127 402.5 348.5 402.5 341.873 402.5 336.5 397.127 336.5 390.5Z" stroke="#FFFFFF" stroke-width="1.33333" stroke-miterlimit="8" fill="#971B2F" fill-rule="evenodd"/><g><g><g><path d="M412.886 404.528C412.886 407.271 410.663 409.494 407.92 409.494 405.178 409.494 402.955 407.271 402.955 404.528 402.955 401.786 405.178 399.562 407.92 399.562 410.663 399.562 412.886 401.786 412.886 404.528Z" fill="#C50F3C"/><path d="M417.688 420.781 417.688 415.816C417.671 415.042 417.31 414.316 416.703 413.836 415.276 412.736 413.644 411.933 411.902 411.473 410.587 411.07 409.219 410.863 407.844 410.861 406.47 410.882 405.105 411.088 403.786 411.473 402.063 411.983 400.44 412.782 398.984 413.836 398.377 414.316 398.016 415.042 398 415.816L398 420.781Z" fill="#C50F3C"/><path d="M434.608 404.528C434.608 407.271 432.385 409.494 429.642 409.494 426.9 409.494 424.677 407.271 424.677 404.528 424.677 401.786 426.9 399.562 429.642 399.562 432.385 399.562 434.608 401.786 434.608 404.528Z" fill="#C50F3C"/><path d="M439.562 420.781 439.562 415.816C439.546 415.042 439.185 414.316 438.578 413.836 437.151 412.736 435.519 411.933 433.777 411.473 432.462 411.07 431.094 410.863 429.719 410.861 428.345 410.882 426.98 411.088 425.661 411.473 423.938 411.983 422.315 412.782 420.859 413.836 420.252 414.316 419.891 415.042 419.875 415.816L419.875 420.781Z" fill="#C50F3C"/><path d="M456.483 404.528C456.483 407.271 454.26 409.494 451.517 409.494 448.775 409.494 446.552 407.271 446.552 404.528 446.552 401.786 448.775 399.562 451.517 399.562 454.26 399.562 456.483 401.786 456.483 404.528Z" fill="#C50F3C"/><path d="M461.438 420.781 461.438 415.816C461.421 415.042 461.06 414.316 460.453 413.836 459.026 412.736 457.394 411.933 455.652 411.473 454.337 411.07 452.969 410.863 451.594 410.861 450.22 410.882 448.855 411.088 447.536 411.473 445.813 411.983 444.19 412.782 442.734 413.836 442.127 414.316 441.766 415.042 441.75 415.816L441.75 420.781Z" fill="#C50F3C"/><path d="M392.991 358.612C392.991 362.201 390.082 365.109 386.494 365.109 382.906 365.109 379.997 362.201 379.997 358.612 379.997 355.024 382.906 352.116 386.494 352.116 390.082 352.116 392.991 355.024 392.991 358.612Z" fill="#C50F3C"/><path d="M424.808 356.108C424.165 355.474 423.132 355.474 422.489 356.108L408.358 370.239C407.229 369.92 406.015 370.229 405.175 371.048 404.945 371.278 400.866 377.95 400.866 377.95L399.641 372.733C399.478 372.06 399.143 371.442 398.667 370.939 396.651 369.309 394.331 368.097 391.842 367.373 390.083 366.997 388.292 366.781 386.494 366.728 384.679 366.756 382.876 367.028 381.134 367.538 378.623 368.196 376.293 369.415 374.32 371.103 373.84 371.603 373.504 372.222 373.347 372.897 373.347 372.897 368.633 392.694 368.633 393.022 368.633 394.834 370.102 396.303 371.914 396.303 373.366 396.266 374.621 395.278 374.998 393.875L378.411 379.755 378.411 425.156 384.875 425.156 384.875 395.942 388.156 395.942 388.156 425.156 394.609 425.156 394.609 379.547 395.812 384.688C395.896 385.043 396.132 385.343 396.458 385.508 397.716 386.473 399.248 387.013 400.833 387.05 401.865 387.194 402.888 386.73 403.458 385.858L410.13 374.92C410.556 374.248 410.716 373.44 410.578 372.656L424.797 358.438C425.441 357.796 425.446 356.755 424.808 356.108Z" fill="#C50F3C"/><path d="M447.219 340.938 393.625 340.938C391.209 340.938 389.25 342.896 389.25 345.312L389.25 349.25C390.922 349.705 392.436 350.614 393.625 351.875L393.625 345.312 447.219 345.312 447.219 381.406 409.889 381.406 407.22 385.781 447.219 385.781C449.635 385.781 451.594 383.822 451.594 381.406L451.594 345.312C451.594 342.896 449.635 340.938 447.219 340.938Z" fill="#C50F3C"/></g></g></g><text fill="#971B2F" font-family="Noto Mono for Powerline,Noto Mono for Powerline_MSFontService,sans-serif" font-weight="400" font-size="24" transform="translate(357.36 455)">Project</text><text fill="#971B2F" font-family="Noto Mono for Powerline,Noto Mono for Powerline_MSFontService,sans-serif" font-weight="400" font-size="24" transform="translate(357.36 484)">topic</text><text fill="#971B2F" font-family="Noto Mono for Powerline,Noto Mono for Powerline_MSFontService,sans-serif" font-weight="400" font-size="24" transform="translate(357.36 512)">idea</text><text fill="#971B2F" font-family="Noto Mono for Powerline,Noto Mono for Powerline_MSFontService,sans-serif" font-weight="400" font-size="24" transform="translate(414.693 512)">(s)</text><text fill="#971B2F" font-family="Noto Mono for Powerline,Noto Mono for Powerline_MSFontService,sans-serif" font-weight="400" font-size="19" transform="translate(357.36 536)">(20 Pkt.)</text><text fill="#971B2F" font-family="Noto Mono for Powerline,Noto Mono for Powerline_MSFontService,sans-serif" font-weight="400" font-size="24" transform="translate(550.118 385)">Project</text><text fill="#971B2F" font-family="Noto Mono for Powerline,Noto Mono for Powerline_MSFontService,sans-serif" font-weight="400" font-size="24" transform="translate(550.118 414)">proposal</text><text fill="#971B2F" font-family="Noto Mono for Powerline,Noto Mono for Powerline_MSFontService,sans-serif" font-weight="400" font-size="19" transform="translate(550.118 437)">(15 Pkt.)</text><path d="M529.5 304C529.5 297.649 534.649 292.5 541 292.5 547.351 292.5 552.5 297.649 552.5 304 552.5 310.351 547.351 315.5 541 315.5 534.649 315.5 529.5 310.351 529.5 304Z" stroke="#FFFFFF" stroke-width="1.33333" stroke-miterlimit="8" fill="#971B2F" fill-rule="evenodd"/><path d="M103.5 625.5C103.5 618.873 108.649 613.5 115 613.5 121.351 613.5 126.5 618.873 126.5 625.5 126.5 632.128 121.351 637.5 115 637.5 108.649 637.5 103.5 632.128 103.5 625.5Z" stroke="#FFFFFF" stroke-width="1.33333" stroke-miterlimit="8" fill="#971B2F" fill-rule="evenodd"/><text fill="#971B2F" font-family="Noto Mono for Powerline,Noto Mono for Powerline_MSFontService,sans-serif" font-weight="400" font-size="24" transform="translate(707.476 81)">Peer</text><text fill="#971B2F" font-family="Noto Mono for Powerline,Noto Mono for Powerline_MSFontService,sans-serif" font-weight="400" font-size="24" transform="translate(707.476 110)">Review</text><text fill="#971B2F" font-family="Noto Mono for Powerline,Noto Mono for Powerline_MSFontService,sans-serif" font-weight="400" font-size="19" transform="translate(707.476 133)">(15 Pkt.)</text><g><g><g><path d="M644 54 660 54 660 51C660 48.8 658.2 47 656 47L614 47C611.8 47 610 48.8 610 51L610 78C610 80.2 611.8 82 614 82L620 82 620 92 630 82 636 82 636 62C636 57.6 639.6 54 644 54Z" fill="#C50F3C"/><path d="M686 58 644 58C641.8 58 640 59.8 640 62L640 89C640 91.2 641.8 93 644 93L670 93 680 103 680 93 686 93C688.2 93 690 91.2 690 89L690 62C690 59.8 688.2 58 686 58Z" fill="#C50F3C"/></g></g></g></g></svg>