<svg width="960" height="720" xmlns="http://www.w3.org/2000/svg" xmlns:xlink="http://www.w3.org/1999/xlink" overflow="hidden"><g><rect x="0" y="0" width="960" height="720" fill="#FFFFFF"/><g><g><g><path d="M104.5 71.5C104.5 73.0125 103.262 74.25 101.75 74.25L93.5 74.25C91.9875 74.25 90.75 73.0125 90.75 71.5L90.75 68.75C90.75 67.2375 91.9875 66 93.5 66L101.75 66C103.262 66 104.5 67.2375 104.5 68.75L104.5 71.5ZM33.4125 57.75 41.3875 38.775C41.8 37.8125 42.7625 37.125 43.8625 37.125L87.8625 37.125C88.9625 37.125 89.925 37.8125 90.3375 38.775L98.5875 57.75 33.4125 57.75ZM41.25 71.5C41.25 73.0125 40.0125 74.25 38.5 74.25L30.25 74.25C28.7375 74.25 27.5 73.0125 27.5 71.5L27.5 68.75C27.5 67.2375 28.7375 66 30.25 66L38.5 66C40.0125 66 41.25 67.2375 41.25 68.75L41.25 71.5ZM104.5 57.75 95.5625 36.7125C94.325 33.55 91.3 31.625 88 31.625L77 31.625 77 28.875C77 25.85 74.525 23.375 71.5 23.375L60.5 23.375C57.475 23.375 55 25.85 55 28.875L55 31.625 44 31.625C40.7 31.625 37.675 33.55 36.4375 36.7125L27.5 57.75C22.9625 57.75 19.25 61.4625 19.25 66L19.25 88C19.25 91.025 21.725 93.5 24.75 93.5L27.5 93.5 27.5 103.125C27.5 106.15 29.975 108.625 33 108.625L35.75 108.625C38.775 108.625 41.25 106.15 41.25 103.125L41.25 93.5 90.75 93.5 90.75 103.125C90.75 106.15 93.225 108.625 96.25 108.625L99 108.625C102.025 108.625 104.5 106.15 104.5 103.125L104.5 93.5 107.25 93.5C110.275 93.5 112.75 91.025 112.75 88L112.75 66C112.75 61.4625 109.038 57.75 104.5 57.75Z" fill="#04316A" transform="matrix(1 0 0 1.00758 287 95)"/></g></g></g><g><g><g><path d="M55.825 60.5C52.8 60.5 50.325 58.025 50.325 55 50.325 51.975 52.8 49.5 55.825 49.5 58.85 49.5 61.325 51.975 61.325 55 61.325 58.025 58.85 60.5 55.825 60.5ZM113.025 57.0625 39.4625 26.5375 26.8125 57.0625 51.7 67.5125 51.7 72.875C51.7 78.925 46.75 83.875 40.7 83.875L20.075 83.875 20.075 19.25 11.825 19.25 11.825 112.75 20.075 112.75 20.075 92.125 40.7 92.125C51.2875 92.125 59.95 83.4625 59.95 72.875L59.95 70.8125 83.325 80.4375 113.025 57.0625Z" fill="#04316A" transform="matrix(1 0 0 1.00758 111 18)"/><path d="M110.137 66.4125 97.9 76.0375 107.938 80.1625 120.175 70.5375Z" fill="#04316A" transform="matrix(1 0 0 1.00758 111 18)"/></g></g></g><g><g><g><path d="M324 475.75C324 463.65 333.9 453.75 346 453.75 358.1 453.75 368 463.65 368 475.75 368 487.85 358.1 497.75 346 497.75 333.9 497.75 324 487.85 324 475.75ZM346 442.75C347.513 442.75 348.75 443.987 348.75 445.5 348.75 447.013 347.513 448.25 346 448.25 344.487 448.25 343.25 447.013 343.25 445.5 343.25 443.987 344.487 442.75 346 442.75ZM374.188 521.95 357 519.75 357 512.6C372.95 507.925 384.5 493.212 384.5 475.75 384.5 454.438 367.312 437.25 346 437.25 324.688 437.25 307.5 454.438 307.5 475.75 307.5 493.212 319.05 507.925 335 512.6L335 519.75 317.812 521.95C315.062 522.362 313 524.7 313 527.45L313 530.75 379 530.75 379 527.312C379 524.562 376.938 522.225 374.188 521.95Z" fill="#04316A"/><path d="M346 484C341.462 484 337.75 480.288 337.75 475.75 337.75 471.212 341.462 467.5 346 467.5 350.538 467.5 354.25 471.212 354.25 475.75 354.25 480.288 350.538 484 346 484ZM346 459.25C336.925 459.25 329.5 466.675 329.5 475.75 329.5 484.825 336.925 492.25 346 492.25 355.075 492.25 362.5 484.825 362.5 475.75 362.5 466.675 355.075 459.25 346 459.25Z" fill="#04316A"/></g></g></g><g><g><g><path d="M66 100.375C52.25 100.375 41.25 89.375 41.25 75.625 41.25 61.875 52.25 50.875 66 50.875 79.75 50.875 90.75 61.875 90.75 75.625 90.75 89.375 79.75 100.375 66 100.375ZM38.5 56.375 22 56.375 22 45.375 38.5 45.375 38.5 56.375ZM115.5 34.375 88 34.375 79.75 20.625 52.25 20.625 44 34.375 16.5 34.375C13.475 34.375 11 36.85 11 39.875L11 105.875C11 108.9 13.475 111.375 16.5 111.375L115.5 111.375C118.525 111.375 121 108.9 121 105.875L121 39.875C121 36.85 118.525 34.375 115.5 34.375Z" fill="#04316A" transform="matrix(1 0 0 1.00758 445 62)"/><path d="M66 61.875C58.3 61.875 52.25 67.925 52.25 75.625 52.25 83.325 58.3 89.375 66 89.375 73.7 89.375 79.75 83.325 79.75 75.625 79.75 67.925 73.7 61.875 66 61.875ZM66 94.875C55.275 94.875 46.75 86.35 46.75 75.625 46.75 64.9 55.275 56.375 66 56.375 76.725 56.375 85.25 64.9 85.25 75.625 85.25 86.35 76.725 94.875 66 94.875Z" fill="#04316A" transform="matrix(1 0 0 1.00758 445 62)"/></g></g></g><g><g><g><path d="M90.75 110 41.25 110 41.25 22 90.75 22 90.75 110ZM60.5 11 71.5 11C73.0125 11 74.25 12.2375 74.25 13.75 74.25 15.2625 73.0125 16.5 71.5 16.5L60.5 16.5C58.9875 16.5 57.75 15.2625 57.75 13.75 57.75 12.2375 58.9875 11 60.5 11ZM96.25 5.5 35.75 5.5C34.2375 5.5 33 6.7375 33 8.25L33 123.75C33 125.262 34.2375 126.5 35.75 126.5L96.25 126.5C97.7625 126.5 99 125.262 99 123.75L99 8.25C99 6.7375 97.7625 5.5 96.25 5.5Z" fill="#C50F3C" transform="matrix(1.00758 0 0 1 373 314)"/></g></g></g><g><g><g><path d="M115.775 39.7375C101.2 31.075 84.15 26.125 66 26.125 47.85 26.125 30.8 31.075 16.225 39.7375 13.475 41.3875 12.65 44.9625 14.4375 47.575L21.725 58.3C23.65 61.1875 27.775 61.6 30.1125 59.125L36.85 52.3875C37.95 51.2875 38.5 49.9125 38.5 48.5375L38.5 41.525C47.1625 38.6375 56.375 36.9875 66 36.9875 75.625 36.9875 84.8375 38.6375 93.5 41.525L93.5 48.5375C93.5 50.05 94.05 51.425 95.15 52.3875L101.887 59.125C104.363 61.6 108.35 61.1875 110.275 58.3L117.562 47.575C119.35 44.9625 118.525 41.3875 115.775 39.7375Z" fill="#04316A" transform="matrix(1.00758 0 0 1 528 543)"/><path d="M79.75 71.5 74.25 71.5 74.25 66 79.75 66 79.75 71.5ZM79.75 82.5 74.25 82.5 74.25 77 79.75 77 79.75 82.5ZM79.75 93.5 74.25 93.5 74.25 88 79.75 88 79.75 93.5ZM68.75 71.5 63.25 71.5 63.25 66 68.75 66 68.75 71.5ZM68.75 82.5 63.25 82.5 63.25 77 68.75 77 68.75 82.5ZM68.75 93.5 63.25 93.5 63.25 88 68.75 88 68.75 93.5ZM57.75 71.5 52.25 71.5 52.25 66 57.75 66 57.75 71.5ZM57.75 82.5 52.25 82.5 52.25 77 57.75 77 57.75 82.5ZM57.75 93.5 52.25 93.5 52.25 88 57.75 88 57.75 93.5ZM88 56.375 88 48.125C88 45.7875 86.2125 44 83.875 44 81.5375 44 79.75 45.7875 79.75 48.125L79.75 55 52.25 55 52.25 48.125C52.25 45.7875 50.4625 44 48.125 44 45.7875 44 44 45.7875 44 48.125L44 56.375 27.9125 72.4625C25.85 74.525 24.75 77.275 24.75 80.3L24.75 104.5 107.25 104.5 107.25 80.1625C107.25 77.275 106.15 74.3875 104.087 72.325L88 56.375Z" fill="#04316A" transform="matrix(1.00758 0 0 1 528 543)"/></g></g></g><g><g><g><path d="M655.375 353.625C653.037 353.625 651.25 351.837 651.25 349.5 651.25 347.163 653.037 345.375 655.375 345.375 657.713 345.375 659.5 347.163 659.5 349.5 659.5 351.837 657.713 353.625 655.375 353.625ZM647.125 361.875C644.787 361.875 643 360.087 643 357.75 643 355.413 644.787 353.625 647.125 353.625 649.463 353.625 651.25 355.413 651.25 357.75 651.25 360.087 649.463 361.875 647.125 361.875ZM638.875 353.625C636.537 353.625 634.75 351.837 634.75 349.5 634.75 347.163 636.537 345.375 638.875 345.375 641.213 345.375 643 347.163 643 349.5 643 351.837 641.213 353.625 638.875 353.625ZM647.125 337.125C649.463 337.125 651.25 338.913 651.25 341.25 651.25 343.587 649.463 345.375 647.125 345.375 644.787 345.375 643 343.587 643 341.25 643 338.913 644.787 337.125 647.125 337.125ZM603.125 352.25 597.625 352.25 597.625 357.75C597.625 359.263 596.388 360.5 594.875 360.5 593.362 360.5 592.125 359.263 592.125 357.75L592.125 352.25 586.625 352.25C585.112 352.25 583.875 351.013 583.875 349.5 583.875 347.987 585.112 346.75 586.625 346.75L592.125 346.75 592.125 341.25C592.125 339.737 593.362 338.5 594.875 338.5 596.388 338.5 597.625 339.737 597.625 341.25L597.625 346.75 603.125 346.75C604.638 346.75 605.875 347.987 605.875 349.5 605.875 351.013 604.638 352.25 603.125 352.25ZM652.625 316.5C636.4 316.5 644.65 324.75 621 324.75 597.35 324.75 605.6 316.5 589.375 316.5 572.05 316.5 550.05 393.5 572.875 393.5 593.912 393.5 585.938 374.25 621 374.25 656.062 374.25 648.088 393.5 669.125 393.5 691.95 393.5 669.95 316.5 652.625 316.5Z" fill="#04316A"/></g></g></g><g><g><g><path d="M553.025 294.025C548.213 298.837 540.375 298.837 535.562 294.025L523.875 282.337C520.162 278.625 519.2 272.987 521.537 268.312L531.713 278.487C533.362 280 535.838 280 537.487 278.35 539 276.837 539.138 274.225 537.625 272.575L527.45 262.4C532.125 260.2 537.763 261.163 541.475 264.875L553.162 276.562C557.838 281.375 557.838 289.075 553.025 294.025ZM492.663 251.125 480.975 239.438C476.163 234.625 476.163 226.788 480.975 221.975 485.788 217.163 493.625 217.163 498.438 221.975L510.125 233.663C513.838 237.375 514.8 243.012 512.6 247.688L504.35 239.438C502.7 237.925 500.225 237.925 498.575 239.575 497.062 241.087 496.925 243.7 498.438 245.35L506.688 253.6C502.013 255.8 496.375 254.837 492.663 251.125ZM558.8 270.65 547.112 258.962C540.237 251.95 529.237 250.85 521.125 256.35L518.65 253.875C524.013 245.762 522.912 234.9 516.037 227.887L504.35 216.2C496.237 208.775 483.587 209.05 475.75 216.75 467.913 224.587 467.638 237.1 475.2 245.35L486.888 257.038C493.763 264.05 504.763 265.15 512.875 259.65L515.35 262.125C509.987 270.237 511.087 281.1 517.963 288.112L529.65 299.8C537.763 307.362 550.412 307.087 558.25 299.25 566.088 291.413 566.362 278.763 558.8 270.65L558.8 270.65Z" fill="#C50F3C"/></g></g></g><g><g><g><path d="M270.5 601.525C267.2 601.525 264.45 598.775 264.587 595.338 264.587 592.037 267.337 589.287 270.638 589.287 273.938 589.287 276.688 592.037 276.688 595.338 276.688 596.987 276 598.5 274.9 599.6 273.663 600.838 272.15 601.525 270.5 601.525ZM264.587 582.412C261.562 583.513 259.225 585.85 257.712 588.6 255.788 592.312 255.512 596.575 257.025 600.425L263.625 614.725 268.025 623.8C268.438 624.763 269.4 625.312 270.5 625.312 271.6 625.312 272.562 624.763 272.975 623.8L277.375 614.725 283.975 600.562C284.663 598.912 284.938 597.125 284.938 595.338 284.938 585.713 275.038 578.425 264.587 582.412Z" fill="#04316A"/><path d="M240.25 660.1 218.25 649.1 218.25 604.275 240.25 615.275 240.25 660.1ZM212.75 649.1 196.25 657.35 196.25 612.525 212.75 604.275 212.75 649.1ZM288.925 602.9 288.925 602.9 285.487 610.325 289.75 612.525 289.75 657.35 273.25 649.1 273.25 630.812 267.75 630.812 267.75 649.1 245.75 660.1 245.75 615.275 255.512 610.325 252.075 602.9 243 607.438 215.5 593.688 188 607.438 188 670.688 215.5 656.938 243 670.688 270.5 656.938 298 670.688 298 607.438 288.925 602.9Z" fill="#04316A"/></g></g></g><g><g><g><path d="M669 56.75C640.125 56.75 616.75 80.125 616.75 109 616.75 137.875 640.125 161.25 669 161.25 697.875 161.25 721.25 137.875 721.25 109 721.25 80.125 697.875 56.75 669 56.75ZM669 65C693.2 65 713 84.8 713 109 713 133.2 693.2 153 669 153 644.8 153 625 133.2 625 109 625 84.8 644.8 65 669 65" fill="#C50F3C"/><path d="M647.55 130.45 677.8 118.075 690.175 87.825 659.925 100.475 647.55 130.45ZM669 106.25C670.65 106.25 671.75 107.35 671.75 109 671.75 110.65 670.65 111.75 669 111.75 667.35 111.75 666.25 110.65 666.25 109 666.25 107.35 667.35 106.25 669 106.25" fill="#C50F3C"/></g></g></g><g><g><g><path d="M814.75 513.5C795.775 513.5 780.1 527.112 776.938 545.125L773.5 545.125C771.987 545.125 770.75 546.362 770.75 547.875L770.75 553.375C770.75 554.888 771.987 556.125 773.5 556.125L776.525 556.125C778.588 575.513 794.812 590.5 814.75 590.5 836.062 590.5 853.25 573.312 853.25 552 853.25 530.688 836.062 513.5 814.75 513.5ZM814.75 582.25C797.975 582.25 784.5 568.775 784.5 552 784.5 535.225 797.975 521.75 814.75 521.75 831.525 521.75 845 535.225 845 552 845 568.775 831.525 582.25 814.75 582.25Z" fill="#04316A"/><path d="M841.425 516.938 837.575 496.038C837.162 493.425 834.825 491.5 832.213 491.5L797.287 491.5C794.675 491.5 792.338 493.425 791.925 496.038L788.075 517.075C803.888 504.975 825.612 504.975 841.425 516.938Z" fill="#04316A"/><path d="M788.075 587.062 791.925 608.1C792.338 610.713 794.675 612.638 797.287 612.638L832.075 612.638C834.688 612.638 837.025 610.713 837.438 608.1L841.287 587.062C825.612 599.025 803.888 599.025 788.075 587.062Z" fill="#04316A"/><path d="M817.5 530 812 530 812 552C812 552.688 812.275 553.375 812.825 553.925L827.95 569.05 831.8 565.2 817.5 550.9 817.5 530Z" fill="#04316A"/></g></g></g><g><g><g><path d="M44 85.25C44 91.3251 39.0751 96.25 33 96.25 26.9249 96.25 22 91.3251 22 85.25 22 79.1749 26.9249 74.25 33 74.25 39.0751 74.25 44 79.1749 44 85.25Z" fill="#04316A" transform="matrix(1.00758 0 0 1 760 117)"/><path d="M110 85.25C110 91.3251 105.075 96.25 99 96.25 92.9249 96.25 88 91.3251 88 85.25 88 79.1749 92.9249 74.25 99 74.25 105.075 74.25 110 79.1749 110 85.25Z" fill="#04316A" transform="matrix(1.00758 0 0 1 760 117)"/><path d="M53.625 57.75 53.625 41.25 72.4625 41.25C73.975 41.25 75.35 41.8 76.3125 42.9L91.1625 57.75 53.625 57.75ZM48.125 57.75 13.3375 57.75 28.1875 42.9C29.2875 41.8 30.6625 41.25 32.0375 41.25L48.125 41.25 48.125 57.75ZM112.75 57.75 101.337 57.75C99.825 57.75 98.45 57.2 97.4875 56.1L80.1625 38.9125C78.1 36.85 75.35 35.75 72.325 35.75L32.0375 35.75C29.15 35.75 26.2625 36.85 24.2 38.9125L7.15 56.1C6.05 57.2 5.5 58.575 5.5 60.0875L5.5 74.25C5.5 80.3 10.45 85.25 16.5 85.25L17.875 85.25C17.875 76.8625 24.6125 70.125 33 70.125 41.3875 70.125 48.125 76.8625 48.125 85.25L83.875 85.25C83.875 76.8625 90.6125 70.125 99 70.125 107.387 70.125 114.125 76.8625 114.125 85.25L121 85.25C124.025 85.25 126.5 82.775 126.5 79.75L126.5 71.5C126.5 63.9375 120.312 57.75 112.75 57.75Z" fill="#04316A" transform="matrix(1.00758 0 0 1 760 117)"/></g></g></g><g><g><g><path d="M849.604 396.188 755.396 396.188 755.396 374.021 849.604 374.021 849.604 396.188ZM849.604 434.979 755.396 434.979 755.396 412.812 849.604 412.812 849.604 434.979ZM852.375 365.708 752.625 365.708C749.577 365.708 747.083 368.202 747.083 371.25L747.083 437.75C747.083 440.798 749.577 443.292 752.625 443.292L852.375 443.292C855.423 443.292 857.917 440.798 857.917 437.75L857.917 371.25C857.917 368.202 855.423 365.708 852.375 365.708Z" fill="#04316A"/><path d="M763.708 421.125 785.875 421.125 785.875 426.667 763.708 426.667Z" fill="#04316A"/><path d="M791.417 421.125 802.5 421.125 802.5 426.667 791.417 426.667Z" fill="#04316A"/></g></g></g><g><g><g><path d="M317.007 270.844 317.01 270.844 368.514 319.77 374.757 314.435 317.01 259.5 317.007 259.5 259.26 314.435 265.502 319.77 317.007 270.844Z" fill="#04316A"/><path d="M275.757 317.614 275.757 358.5 308.757 358.5 308.757 324.125 325.257 324.125 325.257 358.5 358.257 358.5 358.257 317.613 317.008 278.428 275.757 317.614Z" fill="#04316A"/><path d="M341.764 269.268 341.766 274.652C344.663 274.675 347.432 275.853 349.459 277.924 351.508 279.966 352.681 282.725 352.73 285.618L358.115 285.619C358.074 276.606 350.777 269.309 341.764 269.268Z" fill="#04316A"/><path d="M368.884 285.622C368.986 270.743 357.006 258.6 342.128 258.499 342.005 258.498 341.883 258.498 341.761 258.499L341.763 263.883C353.737 263.853 363.469 273.535 363.5 285.51 363.5 285.547 363.5 285.584 363.5 285.62Z" fill="#04316A"/><path d="M341.758 247.537 341.759 252.921C359.786 253.004 374.379 267.597 374.461 285.624L379.846 285.625C379.835 264.594 362.789 247.548 341.758 247.537Z" fill="#04316A"/></g></g></g><g><g><g><path d="M144.508 284.248 45.508 284.248C42.474 284.257 40.0168 286.714 40.0079 289.748L40.0079 355.748C40.0168 358.782 42.474 361.239 45.508 361.248L84.008 361.248 84.008 369.498 70.258 369.498 70.258 377.748 119.758 377.748 119.758 369.498 106.008 369.498 106.008 361.248 144.508 361.248C147.542 361.239 149.999 358.782 150.008 355.748L150.008 289.748C149.999 286.714 147.542 284.257 144.508 284.248ZM84.6955 352.998 48.258 352.998 48.258 324.811 84.6955 324.811ZM84.6955 320.686 48.258 320.686 48.258 292.498 84.6955 292.498ZM141.758 352.998 88.8205 352.998 88.8205 292.498 141.758 292.498Z" fill="#04316A"/><path d="M129.383 328.932C129.414 327.734 128.847 326.599 127.87 325.905 125.694 324.201 123.17 322.995 120.476 322.374 118.456 321.766 116.366 321.427 114.258 321.365 112.145 321.371 110.046 321.712 108.04 322.374 105.384 323.101 102.88 324.297 100.645 325.905 99.6975 326.623 99.1385 327.742 99.1328 328.932L99.1328 336.498 129.383 336.498Z" fill="#04316A"/><path d="M121.82 311.78C121.82 315.957 118.435 319.343 114.258 319.343 110.081 319.343 106.695 315.957 106.695 311.78 106.695 307.604 110.081 304.218 114.258 304.218 118.435 304.218 121.82 307.604 121.82 311.78Z" fill="#04316A"/><path d="M75.758 311.835C75.7774 311.097 75.4284 310.399 74.8271 309.972 73.4877 308.923 71.9344 308.181 70.2767 307.799 69.034 307.425 67.7474 307.216 66.4501 307.178 65.1498 307.182 63.8583 307.392 62.6234 307.799 60.9894 308.246 59.4484 308.982 58.0731 309.972 57.4899 310.414 57.1457 311.103 57.1424 311.835L57.1424 316.491 75.758 316.491Z" fill="#04316A"/><path d="M71.1054 301.28C71.1054 303.851 69.0212 305.935 66.4502 305.935 63.8792 305.935 61.795 303.851 61.795 301.28 61.795 298.709 63.8792 296.625 66.4502 296.625 69.0212 296.625 71.1054 298.709 71.1054 301.28Z" fill="#04316A"/><path d="M75.758 344.217C75.7774 343.48 75.4284 342.781 74.8271 342.354 73.4877 341.305 71.9344 340.564 70.2767 340.181 69.034 339.808 67.7474 339.599 66.4501 339.56 65.1498 339.564 63.8583 339.774 62.6234 340.181 60.9894 340.629 59.4484 341.365 58.0731 342.354 57.4897 342.796 57.1457 343.485 57.1424 344.217L57.1424 348.873 75.758 348.873Z" fill="#04316A"/><path d="M71.1054 333.662C71.1054 336.233 69.0212 338.317 66.4502 338.317 63.8792 338.317 61.795 336.233 61.795 333.662 61.795 331.091 63.8792 329.007 66.4502 329.007 69.0212 329.007 71.1054 331.091 71.1054 333.662Z" fill="#04316A"/></g></g></g><g><g><g><path d="M727.987 490.763C727.575 490.763 727.162 490.763 726.75 490.763L723.175 481.138C731.425 476.462 734.312 466.013 729.775 457.763 725.1 449.513 714.65 446.625 706.4 451.163 702.412 453.362 699.388 457.212 698.287 461.612L685.5 460.237C684.537 454.188 678.9 449.925 672.85 450.888 667.35 451.712 663.362 456.388 663.362 461.888 663.362 463.812 663.912 465.737 664.875 467.525L649.475 482.65C646.588 480.45 643.013 479.212 639.3 479.212 629.812 479.212 622.112 486.913 622.112 496.4 622.112 505.888 629.812 513.588 639.3 513.588L642.737 534.213C637.1 536.688 634.487 543.287 636.963 548.925 639.438 554.562 646.037 557.175 651.675 554.7 656.9 552.5 659.513 546.725 658 541.225L670.1 534.9C677.938 543.562 691.412 544.25 700.213 536.412 704.612 532.425 707.225 526.65 707.225 520.737 707.225 519.225 707.088 517.575 706.675 516.062L720.013 509.188C724.138 513.862 731.15 514.275 735.825 510.15 740.5 506.025 740.912 499.013 736.787 494.337 734.175 492.138 731.15 490.763 727.987 490.763L727.987 490.763ZM727.987 494.888C729.775 494.888 731.15 496.263 731.15 498.05 731.15 499.837 729.775 501.212 727.987 501.212 726.2 501.212 724.825 499.837 724.825 498.05 724.825 498.05 724.825 498.05 724.825 498.05 724.825 496.263 726.2 494.888 727.987 494.888L727.987 494.888ZM714.787 455.7C717.4 455.7 719.6 457.9 719.6 460.513 719.6 463.125 717.4 465.325 714.787 465.325 712.175 465.325 709.975 463.125 709.975 460.513 709.975 460.513 709.975 460.513 709.975 460.513 709.975 457.9 712.037 455.7 714.787 455.7ZM705.025 471.375C705.025 470.688 705.438 469.862 705.987 469.45 707.362 468.487 709.013 467.663 710.662 467.25 711.9 466.837 713.275 466.7 714.65 466.7 716.025 466.7 717.4 466.975 718.638 467.25 720.287 467.663 721.938 468.487 723.312 469.587 723.862 470 724.275 470.825 724.275 471.513L724.275 475.225 705.025 475.225 705.025 471.375ZM674.362 454.875C676.15 454.875 677.525 456.25 677.525 458.038 677.525 459.825 676.15 461.2 674.362 461.2 672.575 461.2 671.2 459.825 671.2 458.038 671.2 458.038 671.2 458.038 671.2 458.038 671.2 456.388 672.575 454.875 674.362 454.875L674.362 454.875ZM667.9 465.188C667.9 464.638 668.175 464.225 668.588 463.95 669.55 463.263 670.65 462.85 671.75 462.575 672.575 462.3 673.537 462.163 674.362 462.163 675.188 462.163 676.15 462.3 676.975 462.575 678.075 462.85 679.037 463.4 680 464.087 680.412 464.362 680.688 464.913 680.688 465.325L680.688 467.8 668.037 467.8 668.037 465.188ZM639.025 485.95C641.638 485.95 643.838 488.15 643.838 490.763 643.838 493.375 641.638 495.575 639.025 495.575 636.412 495.575 634.213 493.375 634.213 490.763 634.213 490.763 634.213 490.763 634.213 490.763 634.35 488.15 636.412 485.95 639.025 485.95L639.025 485.95ZM629.4 505.337 629.4 501.625C629.4 500.938 629.812 500.112 630.362 499.7 631.737 498.737 633.388 497.913 635.037 497.5 636.275 497.087 637.65 496.95 639.025 496.95 640.4 496.95 641.775 497.225 643.013 497.5 644.662 497.913 646.312 498.737 647.688 499.837 648.237 500.25 648.65 501.075 648.65 501.763L648.65 505.475 629.4 505.337ZM653.188 550.162 640.4 550.162 640.4 547.688C640.4 547.138 640.675 546.725 641.088 546.45 642.05 545.763 643.15 545.213 644.25 544.938 645.075 544.662 646.037 544.525 646.862 544.525 647.688 544.525 648.65 544.662 649.475 544.938 650.575 545.213 651.537 545.763 652.5 546.45 652.912 546.725 653.188 547.275 653.188 547.688L653.188 550.162ZM643.562 540.537C643.562 538.75 644.938 537.375 646.725 537.375 648.513 537.375 649.888 538.75 649.888 540.537 649.888 542.325 648.513 543.7 646.725 543.7 645.075 543.838 643.7 542.325 643.562 540.537L643.562 540.537ZM654.562 536.688C652.775 534.9 650.3 533.8 647.825 533.525L644.388 512.9C647.688 511.8 650.575 509.737 652.638 506.987L665.425 513.725C663.362 519.225 663.775 525.412 666.525 530.638L654.562 536.688ZM668.037 508.638 655.388 502.038C655.938 500.25 656.213 498.462 656.213 496.538 656.213 492.962 655.112 489.525 653.05 486.638L668.45 471.65C673.675 474.812 680.55 473.3 683.713 468.075 684.125 467.388 684.4 466.7 684.675 466.013L697.463 467.388C697.737 472.337 700.213 477.013 704.2 480.038L692.925 501.075C683.987 497.5 673.675 500.663 668.037 508.638L668.037 508.638ZM691.412 513.725C691.412 517.025 688.662 519.638 685.362 519.638 682.062 519.638 679.45 517.025 679.45 513.725 679.45 510.425 682.062 507.812 685.362 507.812 685.362 507.812 685.362 507.812 685.5 507.812 688.8 507.812 691.412 510.425 691.412 513.725L691.412 513.725ZM697.325 531.737 673.537 531.737 673.537 527.2C673.537 526.237 673.95 525.412 674.775 524.862 676.562 523.625 678.487 522.662 680.55 521.975 682.2 521.562 683.85 521.287 685.5 521.287 687.15 521.287 688.8 521.562 690.45 521.975 692.513 522.525 694.575 523.487 696.225 524.862 696.912 525.412 697.463 526.375 697.463 527.2L697.325 531.737ZM716.85 502.038C716.85 502.862 716.987 503.688 717.263 504.513L704.612 511.112C703.1 508.087 700.763 505.612 698.013 503.688L709.287 482.65C711.075 483.337 713 483.612 714.925 483.612 716.025 483.612 717.125 483.475 718.225 483.337L721.8 492.962C718.5 494.888 716.713 498.325 716.85 502.038ZM734.312 507.538 721.525 507.538 721.525 505.062C721.525 504.513 721.8 504.1 722.213 503.825 723.175 503.138 724.275 502.587 725.375 502.312 726.2 502.038 727.162 501.9 727.987 501.9 728.812 501.9 729.775 502.038 730.6 502.312 731.7 502.587 732.662 503.138 733.625 503.825 734.037 504.1 734.312 504.65 734.312 505.062L734.312 507.538Z" fill="#C50F3C"/></g></g></g><g><g><g><path d="M90.0075 109.725C89.6518 109.726 89.31 109.587 89.0546 109.34 83.4272 104.058 78.526 98.0523 74.4796 91.4801 70.6531 85.0026 68.6873 77.5952 68.7981 70.0728 68.8667 69.3165 69.5354 68.7589 70.2918 68.8276 71.0226 68.894 71.5726 69.5225 71.5412 70.2556 71.5019 77.2302 73.34 84.0867 76.8625 90.1065 80.7796 96.4564 85.5206 102.259 90.9617 107.364 91.5063 107.894 91.5185 108.764 90.9891 109.309 90.7313 109.574 90.3774 109.724 90.0075 109.725Z" fill="#04316A" transform="matrix(1.00758 0 0 1 66 462)"/><path d="M83.0624 116.401C82.7029 116.403 82.3571 116.264 82.0999 116.013 75.9417 110.174 70.5789 103.55 66.1499 96.3119 61.368 88.1787 58.9589 78.8692 59.1951 69.4375 59.599 63.3758 64.8403 58.7892 70.902 59.1929 76.9259 59.5943 81.5006 64.7757 81.1525 70.8029 81.225 75.8957 82.6154 80.883 85.1881 85.2789 88.3011 90.6496 96.8289 99.638 96.9114 99.7164 97.4498 100.252 97.4519 101.123 96.9162 101.661 96.3805 102.2 95.5097 102.202 94.9713 101.666 94.8915 101.588 86.1245 92.3725 82.8094 86.6525 79.9854 81.7949 78.4693 76.288 78.4094 70.6695 78.7006 66.1222 75.2505 62.1999 70.7032 61.9087 66.1559 61.6175 62.2336 65.0676 61.9424 69.6149 61.7346 78.5033 64.021 87.2721 68.5424 94.9273 72.8441 101.949 78.0505 108.375 84.0276 114.04 84.5721 114.569 84.5844 115.44 84.055 115.984 83.7951 116.251 83.4379 116.402 83.0651 116.401Z" fill="#04316A" transform="matrix(1.00758 0 0 1 66 462)"/><path d="M55.231 122.664C54.4716 122.664 53.8561 122.048 53.8561 121.289 53.8563 121.164 53.8733 121.039 53.9069 120.919 55.5569 114.993 59.5801 111.163 64.1548 111.163 68.6592 111.163 72.6577 114.91 74.3449 120.71 74.5568 121.439 74.1373 122.202 73.4078 122.414 72.6784 122.626 71.9154 122.207 71.7035 121.477 70.3684 116.882 67.4039 113.915 64.1548 113.915 60.9056 113.915 57.8449 117.026 56.5551 121.659 56.3892 122.253 55.8478 122.664 55.231 122.664Z" fill="#04316A" transform="matrix(1.00758 0 0 1 66 462)"/><path d="M45.0381 117.092C44.2787 117.092 43.6633 116.476 43.6635 115.717 43.6637 115.322 43.8338 114.946 44.1306 114.685 47.9572 111.321 56.397 102.121 52.1372 89.3406 49.9558 82.8031 49.0853 75.8995 49.5756 69.025L49.5921 68.7954C50.3444 57.4362 60.1627 48.8377 71.5219 49.5901 71.5325 49.5908 71.543 49.5914 71.5536 49.5921 82.7368 50.3957 91.253 59.9477 90.7734 71.1494 90.7354 71.9088 90.089 72.4936 89.3296 72.4556 88.5702 72.4177 87.9854 71.7713 88.0234 71.0119 88.495 61.1511 80.8837 52.775 71.0229 52.3032 66.4003 52.0821 61.872 53.6625 58.3908 56.7119 54.8174 59.8265 52.6364 64.2396 52.3325 68.97L52.316 69.2079C51.8511 75.7217 52.6758 82.2632 54.7429 88.4579 59.5238 102.802 50.182 113.013 45.9429 116.738 45.6945 116.962 45.3728 117.088 45.0381 117.092ZM100.466 92.95C100.089 92.9507 99.729 92.796 99.4703 92.5224 96.2889 89.2896 93.492 85.6999 91.135 81.8249 90.7752 81.1562 91.0256 80.3223 91.6942 79.9624 92.3345 79.6179 93.1326 79.8314 93.5151 80.4499 95.7639 84.1378 98.4302 87.5542 101.461 90.6318 101.984 91.1822 101.962 92.0524 101.412 92.5757 101.157 92.8184 100.818 92.9538 100.466 92.9541Z" fill="#04316A" transform="matrix(1.00758 0 0 1 66 462)"/><path d="M35.2591 107.938C34.4997 107.937 33.8845 107.321 33.8851 106.562 33.8855 106.148 34.0719 105.756 34.3929 105.495 37.7149 102.799 43.0939 96.9705 41.7821 88.2076 41.6318 87.2057 41.4769 86.2052 41.3174 85.206 40.2309 79.6533 39.7807 73.9949 39.9754 68.3402L39.9878 68.1423C40.5046 60.1414 44.1947 52.6782 50.2384 47.41 56.8041 42.0897 65.1336 39.4386 73.5666 39.985 88.9419 41.0094 101.571 53.6085 101.72 68.068 101.761 72.1366 102.891 75.13 105.076 76.9629 105.658 77.4511 105.734 78.3186 105.245 78.9003 104.757 79.4819 103.89 79.5576 103.308 79.0694 100.479 76.6961 99.0206 73.0042 98.9697 68.0955 98.8322 55.033 87.3579 43.6604 73.3838 42.7281 65.6777 42.2179 58.0618 44.6266 52.0506 49.4752 46.5552 54.2645 43.2004 61.0507 42.7323 68.3251L42.7185 68.5273C42.5342 73.9772 42.9758 79.4305 44.0344 84.7798 44.1925 85.7862 44.3506 86.7928 44.5019 87.8047 46.0144 97.9165 39.9039 104.569 36.124 107.634 35.8795 107.832 35.5739 107.939 35.2591 107.938Z" fill="#04316A" transform="matrix(1.00758 0 0 1 66 462)"/><path d="M102.216 49.6141C101.766 49.6145 101.343 49.3943 101.086 49.0243 94.4859 39.7134 84.0406 33.8738 72.6523 33.1279 63.2386 32.482 53.934 35.4585 46.6427 41.448 46.0383 41.9077 45.1756 41.7904 44.716 41.1859 44.2806 40.6135 44.36 39.8023 44.8979 39.325 52.7277 32.8882 62.7231 29.6905 72.8351 30.3875 85.0565 31.1916 96.2644 37.4616 103.345 47.4554 103.778 48.0793 103.623 48.936 102.999 49.3688 102.769 49.5283 102.496 49.614 102.216 49.6141Z" fill="#04316A" transform="matrix(1.00758 0 0 1 66 462)"/><path d="M26.0343 98.6329C25.2748 98.6333 24.659 98.018 24.6586 97.2586 24.6583 96.7488 24.9402 96.2807 25.3907 96.0424 26.6729 95.3617 27.8472 94.4948 28.875 93.4697 29.9971 92.301 30.8351 90.8896 31.3239 89.3447 31.6191 88.1308 31.7221 86.8781 31.6291 85.6322 30.511 79.7165 30.092 73.6897 30.3806 67.6761L30.3889 67.5304C30.6703 63.2379 31.642 59.0188 33.2668 55.0358 34.6191 51.7334 36.4123 48.6293 38.5976 45.8081 39.0628 45.2078 39.9264 45.0982 40.5268 45.5634 41.1271 46.0285 41.2367 46.8922 40.7715 47.4925 38.7383 50.1165 37.0704 53.0043 35.8132 56.0766 34.3016 59.7828 33.3967 63.7083 33.1334 67.7022L33.1251 67.8521C32.8527 73.6618 33.2621 79.4834 34.3447 85.1978 34.508 86.8578 34.3762 88.5336 33.9556 90.1477 33.3581 92.0652 32.3304 93.8206 30.9513 95.2806 29.7 96.5606 28.2574 97.6382 26.675 98.4747 26.4774 98.5787 26.2575 98.633 26.0343 98.6329Z" fill="#04316A" transform="matrix(1.00758 0 0 1 66 462)"/><path d="M25.1474 54.4967C24.9821 54.4963 24.8182 54.4666 24.6634 54.4087 23.9526 54.1414 23.5931 53.3485 23.8604 52.6378 24.0181 52.2188 24.1817 51.8022 24.3512 51.3879 32.4473 31.6877 52.2269 19.3651 73.4786 20.7817 79.5451 21.1765 85.4899 22.6673 91.025 25.1817 91.7155 25.4976 92.0193 26.3135 91.7034 27.0042 91.3887 27.692 90.5774 27.9965 89.8879 27.6856 84.6542 25.3058 79.0328 23.8938 73.2957 23.518 53.2256 22.18 34.5454 33.8163 26.8978 52.4205 26.7369 52.8124 26.5829 53.2043 26.4344 53.5989 26.235 54.1376 25.7219 54.4957 25.1474 54.4967Z" fill="#04316A" transform="matrix(1.00758 0 0 1 66 462)"/><path d="M38.5976 23.1742C37.8382 23.1744 37.2225 22.5591 37.2222 21.7997 37.2221 21.3363 37.4554 20.904 37.8428 20.6497 48.5687 13.5955 61.318 10.2669 74.1235 11.1774 74.8809 11.2288 75.4534 11.8843 75.4023 12.6418 75.3613 13.3909 74.7208 13.965 73.9716 13.9241 73.9608 13.9234 73.95 13.9227 73.9392 13.9219 61.7313 13.0515 49.5763 16.2242 39.3511 22.9501 39.1271 23.0966 38.8652 23.1745 38.5976 23.1742Z" fill="#04316A" transform="matrix(1.00758 0 0 1 66 462)"/></g></g></g><g><g><g><path d="M560.689 448.991 554.7 456.003 566.031 483.366 540.319 483.366C540.217 490.165 534.622 495.595 527.823 495.493 521.167 495.394 515.795 490.022 515.695 483.366L489.957 483.366 501.297 455.984 495.312 448.971 481.257 483.25 481.257 513.5 574.757 513.5 574.757 483.25Z" fill="#04316A"/><path d="M556.194 445.785 539.007 445.785 539.007 414.5 517.007 414.5 517.007 445.785 499.819 445.785 528.007 478.785 556.194 445.785Z" fill="#04316A"/></g></g></g><g><g><g><path d="M107.525 67.925C114.4 67.925 119.9 62.425 119.9 55.55 119.9 48.675 114.4 43.175 107.525 43.175 100.65 43.175 95.15 48.675 95.15 55.55 95.15 56.2375 95.15 56.7875 95.2875 57.475L80.9875 63.3875C78.375 58.85 73.975 55.6875 68.75 54.8625L68.75 39.6C75.35 38.0875 79.6125 31.4875 78.1 24.75 76.5875 18.15 69.9875 13.8875 63.25 15.4 56.5125 16.9125 52.3875 23.5125 53.9 30.25 55 34.925 58.575 38.5 63.25 39.6L63.25 55C58.1625 55.825 53.7625 58.85 51.15 63.3875L37.2625 57.6125C38.3625 50.875 33.6875 44.55 26.95 43.45 20.075 42.35 13.75 46.8875 12.7875 53.625 11.6875 60.3625 16.3625 66.6875 23.1 67.7875 27.775 68.475 32.45 66.55 35.2 62.7L49.225 68.475C48.2625 73.2875 49.3625 78.2375 52.25 82.225L40.8375 93.775C35.0625 90.2 27.3625 91.9875 23.7875 97.7625 20.2125 103.538 22 111.238 27.775 114.812 33.55 118.387 41.25 116.6 44.825 110.825 47.3 106.7 47.3 101.613 44.6875 97.625L56.1 86.2125C62.0125 90.3375 69.85 90.3375 75.625 86.2125L87.0375 97.625C83.325 103.4 84.975 110.962 90.75 114.675 96.525 118.387 104.087 116.738 107.8 110.962 111.512 105.188 109.863 97.625 104.087 93.9125 100.1 91.3 94.875 91.3 90.75 93.775L79.75 82.225C81.95 79.2 83.1875 75.625 83.1875 71.9125 83.1875 70.8125 83.05 69.7125 82.9125 68.6125L97.35 62.7C99.6875 65.8625 103.4 67.925 107.525 67.925ZM104.637 54.0375C104.637 54.0375 107.8 52.525 107.8 49.9125 107.8 49.3625 108.212 48.8125 108.762 48.8125 109.312 48.8125 109.863 49.225 109.863 49.775 109.863 49.775 109.863 49.775 109.863 49.9125 109.863 51.0125 109.725 52.1125 109.312 53.2125 109.312 53.4875 109.587 53.7625 109.863 53.7625L113.163 53.7625C113.712 53.7625 114.262 54.175 114.262 54.8625 114.262 55.275 113.988 55.6875 113.575 55.825 113.988 56.2375 113.988 56.925 113.575 57.3375 113.438 57.475 113.3 57.6125 113.025 57.6125 113.163 57.75 113.3 58.025 113.3 58.3 113.3 58.85 112.887 59.4 112.2 59.4L112.062 59.4C112.2 59.5375 112.337 59.8125 112.337 60.0875 112.337 60.6375 111.925 61.1875 111.238 61.1875L108.075 61.1875C105.738 61.1875 105.6 59.8125 104.363 59.8125L104.363 54.0375ZM101.613 53.2125 102.85 53.2125C103.262 53.2125 103.538 53.4875 103.538 53.9L103.538 59.8125C103.538 60.225 103.262 60.5 102.85 60.5L101.613 60.5 101.613 53.2125ZM30.3875 56.65 26.2625 56.65 26.2625 60.775 23.5125 60.775 23.5125 56.65 19.3875 56.65 19.3875 53.9 23.5125 53.9 23.5125 49.775 26.2625 49.775 26.2625 53.9 30.3875 53.9 30.3875 56.65ZM30.25 108.075C30.25 108.488 29.975 108.762 29.5625 108.762L28.325 108.762 28.325 101.475 29.5625 101.475C29.975 101.475 30.25 101.75 30.25 102.163L30.25 108.075ZM40.5625 104.775C40.5625 105.325 40.15 105.738 39.7375 105.738 39.875 105.875 40.0125 106.15 40.0125 106.425 40.0125 106.975 39.4625 107.525 38.9125 107.525 39.05 107.663 39.1875 107.938 39.1875 108.212 39.1875 108.762 38.775 109.312 38.0875 109.312L34.925 109.312C32.5875 109.312 32.45 107.938 31.2125 107.938L31.2125 102.3C31.2125 102.3 34.375 100.788 34.375 98.175 34.375 97.625 34.7875 97.075 35.3375 97.075 35.8875 97.075 36.4375 97.4875 36.4375 98.0375 36.4375 98.0375 36.4375 98.0375 36.4375 98.175 36.4375 99.275 36.3 100.375 35.8875 101.475 35.8875 101.75 36.1625 102.025 36.4375 102.025L39.875 102.025C40.425 102.025 40.975 102.438 40.975 103.125 40.975 103.538 40.7 103.95 40.2875 104.087 40.425 104.225 40.5625 104.5 40.5625 104.775ZM59.95 25.4375C59.95 22.9625 63.8 20.2125 66.1375 24.75 68.475 20.2125 72.325 22.9625 72.325 25.4375 72.325 29.2875 66.1375 33.9625 66.1375 33.9625 66.1375 33.9625 59.95 29.15 59.95 25.4375ZM61.1875 66.1375C61.1875 63.525 63.3875 61.325 66 61.325 68.6125 61.325 70.8125 63.525 70.8125 66.1375 70.8125 68.75 68.6125 70.95 66 70.95 63.3875 70.95 61.1875 68.8875 61.1875 66.1375L61.1875 66.1375ZM75.625 80.7125 56.375 80.7125 56.375 77C56.375 76.3125 56.7875 75.4875 57.3375 75.075 58.7125 74.1125 60.3625 73.2875 62.0125 72.7375 63.25 72.325 64.625 72.1875 66 72.1875 67.375 72.1875 68.75 72.325 69.9875 72.7375 71.6375 73.15 73.2875 73.975 74.6625 75.075 75.2125 75.4875 75.625 76.3125 75.625 77L75.625 80.7125ZM97.7625 101.337C100.1 96.8 103.95 99.55 103.95 102.025 103.95 105.875 97.7625 110.55 97.7625 110.55 97.7625 110.55 91.575 105.875 91.575 102.025 91.575 99.55 95.425 96.8 97.7625 101.337Z" fill="#C50F3C" transform="matrix(1 0 0 1.00758 153 141)"/></g></g></g><g><g><g><path d="M171.625 401.431C174.355 401.428 176.825 399.809 177.917 397.306L184 397.306C185.519 397.306 186.75 398.537 186.75 400.056L186.75 418.118C188.153 417.602 189.616 417.266 191.103 417.121 191.371 415.896 191.754 414.699 192.25 413.546L192.25 400.056C192.245 395.502 188.554 391.812 184 391.806L177.917 391.806C176.398 388.326 172.346 386.736 168.866 388.255 165.386 389.774 163.796 393.826 165.315 397.306 166.41 399.815 168.888 401.435 171.625 401.431Z" fill="#C50F3C"/><path d="M176.974 441.69C176.912 441.562 176.862 441.433 176.805 441.306L166.125 441.306C164.606 441.306 163.375 440.075 163.375 438.556L163.375 431.098C166.855 429.579 168.445 425.527 166.926 422.047 165.407 418.567 161.355 416.977 157.875 418.496 154.395 420.015 152.805 424.067 154.324 427.547 155.018 429.136 156.286 430.405 157.875 431.098L157.875 438.556C157.88 443.11 161.571 446.801 166.125 446.806L180.736 446.806C179.174 445.35 177.899 443.614 176.974 441.69Z" fill="#C50F3C"/><path d="M211.5 384.348 211.5 401.475C213.369 401.543 215.22 401.87 217 402.446L217 384.348C220.48 382.829 222.07 378.777 220.551 375.297 219.032 371.817 214.98 370.227 211.5 371.746 208.02 373.265 206.43 377.317 207.949 380.797 208.642 382.386 209.911 383.655 211.5 384.348Z" fill="#C50F3C"/><path d="M239.358 412.362C239.71 412.61 240.045 412.877 240.375 413.146L240.375 408.306C240.375 406.787 241.606 405.556 243.125 405.556L251.375 405.556C255.929 405.551 259.62 401.86 259.625 397.306L259.625 395.348C263.105 393.829 264.695 389.777 263.176 386.297 261.657 382.817 257.605 381.227 254.125 382.746 250.645 384.265 249.055 388.317 250.574 391.797 251.267 393.386 252.536 394.655 254.125 395.348L254.125 397.306C254.125 398.825 252.894 400.056 251.375 400.056L243.125 400.056C238.571 400.061 234.88 403.752 234.875 408.306L234.875 410.116C236.47 410.645 237.979 411.402 239.358 412.362Z" fill="#C50F3C"/><path d="M197.75 451.561 197.75 455.056C197.75 456.575 196.519 457.806 195 457.806L186.75 457.806C182.196 457.811 178.505 461.502 178.5 466.056L178.5 468.014C175.02 469.533 173.43 473.585 174.949 477.065 176.468 480.545 180.52 482.135 184 480.616 187.48 479.098 189.07 475.045 187.551 471.565 186.858 469.976 185.589 468.708 184 468.014L184 466.056C184 464.537 185.231 463.306 186.75 463.306L195 463.306C199.554 463.301 203.245 459.61 203.25 455.056L203.25 451.561Z" fill="#C50F3C"/><path d="M273.375 422.056C270.645 422.06 268.175 423.679 267.083 426.181L253.453 426.181C255.126 427.697 256.428 429.58 257.255 431.681L267.083 431.681C268.602 435.161 272.654 436.751 276.134 435.232 279.614 433.714 281.204 429.661 279.685 426.181 278.59 423.673 276.112 422.053 273.375 422.056Z" fill="#C50F3C"/><path d="M261 459.181C258.27 459.185 255.8 460.804 254.708 463.306L248.625 463.306C247.106 463.306 245.875 462.075 245.875 460.556L245.875 451.353C245.089 451.487 244.294 451.556 243.498 451.561L240.375 451.561 240.375 460.556C240.38 465.11 244.071 468.801 248.625 468.806L254.708 468.806C256.227 472.286 260.279 473.876 263.759 472.357 267.239 470.839 268.829 466.786 267.31 463.306 266.215 460.798 263.737 459.178 261 459.181Z" fill="#C50F3C"/><path d="M223.875 472.139 223.875 451.561 218.375 451.561 218.375 472.139C214.895 473.658 213.305 477.71 214.824 481.19 216.343 484.67 220.395 486.26 223.875 484.741 227.355 483.223 228.945 479.17 227.426 475.69 226.733 474.101 225.464 472.833 223.875 472.139Z" fill="#C50F3C"/><path d="M243.498 426.451C243.202 426.443 242.906 426.458 242.612 426.495L242.612 426.451C242.605 422.178 240.507 418.178 236.997 415.742 233.461 413.285 228.961 412.671 224.897 414.092 221.483 407.627 214.124 404.295 207.013 405.995 199.916 407.635 194.863 413.92 194.785 421.204L194.785 421.341C189.933 420.571 185.049 422.524 182.067 426.429 179.115 430.306 178.584 435.51 180.692 439.904 182.83 444.319 187.226 447.198 192.128 447.393L196.375 447.437 243.498 447.437C249.293 447.504 254.045 442.859 254.111 437.064 254.177 431.269 249.533 426.517 243.738 426.451 243.658 426.45 243.578 426.45 243.498 426.451Z" fill="#C50F3C"/></g></g></g><g><g><g><path d="M104.5 82.5 27.5 82.5 27.5 35.75 104.5 35.75 104.5 82.5ZM112.75 33C112.75 29.975 110.275 27.5 107.25 27.5L24.75 27.5C21.725 27.5 19.25 29.975 19.25 33L19.25 90.75 112.75 90.75 112.75 33Z" fill="#C50F3C" transform="matrix(1 0 0 1.00758 338 535)"/><path d="M74.25 96.25 74.25 97.625C74.25 98.45 73.7 99 72.875 99L59.125 99C58.3 99 57.75 98.45 57.75 97.625L57.75 96.25 2.75 96.25 2.75 99C2.75 102.025 5.225 104.5 8.25 104.5L123.75 104.5C126.775 104.5 129.25 102.025 129.25 99L129.25 96.25 74.25 96.25Z" fill="#C50F3C" transform="matrix(1 0 0 1.00758 338 535)"/></g></g></g><g><g><g><path d="M669.625 202.988C669.625 208.35 665.362 212.613 660 212.613 654.638 212.613 650.375 208.35 650.375 202.988 650.375 197.625 654.638 193.363 660 193.363 665.362 193.363 669.625 197.762 669.625 202.988" fill="#04316A"/><path d="M708.125 208.488C708.125 213.85 703.862 218.113 698.5 218.113 693.138 218.113 688.875 213.85 688.875 208.488 688.875 203.125 693.138 198.863 698.5 198.863 703.862 198.863 708.125 203.125 708.125 208.488" fill="#04316A"/><path d="M631.125 208.488C631.125 213.85 626.862 218.113 621.5 218.113 616.138 218.113 611.875 213.85 611.875 208.488 611.875 203.125 616.138 198.863 621.5 198.863 626.862 198.863 631.125 203.125 631.125 208.488" fill="#04316A"/><path d="M605.825 270.638C605.825 250.562 630.025 234.337 660 234.337 689.838 234.337 714.175 250.562 714.175 270.638L605.825 270.638Z" fill="#04316A"/><path d="M618.2 239.425C623.975 235.575 630.713 232.55 638 230.625L638 229.113C638 227.6 637.312 226.087 636.35 225.125 635.938 224.712 634.975 224.163 633.737 223.613 626.175 220.038 617.237 220.038 609.537 223.475 608.162 224.025 607.062 224.712 606.513 225.125 605.688 226.087 605 227.6 605 229.113L605 252.488C608.162 247.675 612.562 243.137 618.2 239.425" fill="#04316A"/><path d="M676.5 229.25 676.5 223.613C676.5 222.1 675.812 220.587 674.85 219.625 674.438 219.212 673.475 218.663 672.237 218.113 664.675 214.538 655.737 214.538 648.037 217.975 646.662 218.525 645.562 219.212 645.013 219.625 643.912 220.587 643.362 222.1 643.362 223.613L643.362 229.25C648.725 228.15 654.225 227.6 659.862 227.6 665.5 227.6 671.138 228.288 676.5 229.25" fill="#04316A"/><path d="M715 252.488 715 229.113C715 227.6 714.312 226.087 713.35 225.125 712.938 224.712 711.975 224.163 710.737 223.613 703.175 220.038 694.237 220.038 686.537 223.475 685.162 224.025 684.062 224.712 683.513 225.125 682.412 226.087 681.862 227.6 681.862 229.113L681.862 230.625C689.15 232.55 695.888 235.575 701.662 239.425 707.438 243.137 711.838 247.675 715 252.488" fill="#04316A"/></g></g></g><g><g><g><path d="M856.604 303.667 762.396 303.667 762.396 242.708 856.604 242.708 856.604 303.667ZM859.375 234.396 759.625 234.396C756.577 234.396 754.083 236.89 754.083 239.938L754.083 306.438C754.083 309.485 756.577 311.979 759.625 311.979L798.417 311.979 798.417 320.292 784.562 320.292 784.562 328.604 834.438 328.604 834.438 320.292 820.583 320.292 820.583 311.979 859.375 311.979C862.423 311.979 864.917 309.485 864.917 306.438L864.917 239.938C864.917 236.89 862.423 234.396 859.375 234.396Z" fill="#C50F3C"/></g></g></g></g></svg>