<svg width="960" height="720" xmlns="http://www.w3.org/2000/svg" xmlns:xlink="http://www.w3.org/1999/xlink" overflow="hidden"><g><rect x="0" y="0" width="960" height="720" fill="#FFFFFF"/><path d="M49 108.5C49 98.8352 56.8351 91 66.5002 91L893.5 91C903.165 91 911 98.8352 911 108.5L911 178.5C911 188.165 903.165 196 893.5 196L66.5002 196C56.8351 196 49 188.165 49 178.5Z" fill="#C50F3C" fill-rule="evenodd"/><path d="M49.5001 250C49.5001 240.335 57.3352 232.5 67.0002 232.5L894 232.5C903.665 232.5 911.5 240.335 911.5 250L911.5 320C911.5 329.665 903.665 337.5 894 337.5L67.0002 337.5C57.3352 337.5 49.5001 329.665 49.5001 320Z" stroke="#04316A" stroke-width="1.33333" stroke-miterlimit="8" fill="#04316A" fill-rule="evenodd"/><path d="M49.5001 392C49.5001 382.335 57.3352 374.5 67.0002 374.5L894 374.5C903.665 374.5 911.5 382.335 911.5 392L911.5 462C911.5 471.665 903.665 479.5 894 479.5L67.0002 479.5C57.3352 479.5 49.5001 471.665 49.5001 462Z" stroke="#04316A" stroke-width="1.33333" stroke-miterlimit="8" fill="#04316A" fill-rule="evenodd"/><path d="M49.5001 533C49.5001 523.335 57.3352 515.5 67.0002 515.5L894 515.5C903.665 515.5 911.5 523.335 911.5 533L911.5 603C911.5 612.665 903.665 620.5 894 620.5L67.0002 620.5C57.3352 620.5 49.5001 612.665 49.5001 603Z" stroke="#04316A" stroke-width="1.33333" stroke-miterlimit="8" fill="#04316A" fill-rule="evenodd"/><path d="M167 62.5C176.665 62.5 184.5 70.335 184.5 80L184.5 641C184.5 650.665 176.665 658.5 167 658.5L97.0002 658.5C87.3352 658.5 79.5001 650.665 79.5001 641L79.5001 80C79.5001 70.335 87.3352 62.5 97.0002 62.5Z" stroke="#C50F3C" stroke-width="1.33333" stroke-miterlimit="8" fill="#FFFFFF" fill-rule="evenodd"/><text fill="#C50F3C" font-family="Corbel,Corbel_MSFontService,sans-serif" font-weight="400" font-size="37" transform="matrix(6.12323e-17 1 -1 6.12323e-17 118.831 167)">E</text><text fill="#C50F3C" font-family="Corbel,Corbel_MSFontService,sans-serif" font-weight="400" font-size="30" transform="matrix(6.12323e-17 1 -1 6.12323e-17 118.831 187)">THIK</text><text fill="#C50F3C" font-family="Corbel,Corbel_MSFontService,sans-serif" font-weight="400" font-size="37" transform="matrix(6.12323e-17 1 -1 6.12323e-17 118.831 249)">, R</text><text fill="#C50F3C" font-family="Corbel,Corbel_MSFontService,sans-serif" font-weight="400" font-size="30" transform="matrix(6.12323e-17 1 -1 6.12323e-17 118.831 288)">ECHT</text><text fill="#C50F3C" font-family="Corbel,Corbel_MSFontService,sans-serif" font-weight="400" font-size="37" transform="matrix(6.12323e-17 1 -1 6.12323e-17 118.831 367)">&amp; IT</text><text fill="#C50F3C" font-family="Corbel,Corbel_MSFontService,sans-serif" font-weight="400" font-size="37" transform="matrix(6.12323e-17 1 -1 6.12323e-17 118.831 429)">-</text><text fill="#C50F3C" font-family="Corbel,Corbel_MSFontService,sans-serif" font-weight="400" font-size="37" transform="matrix(6.12323e-17 1 -1 6.12323e-17 118.831 441)">S</text><text fill="#C50F3C" font-family="Corbel,Corbel_MSFontService,sans-serif" font-weight="400" font-size="30" transform="matrix(6.12323e-17 1 -1 6.12323e-17 118.831 462)">ICHERHEIT</text><path d="M301.166 62.5001C310.739 62.5001 318.5 70.2607 318.5 79.8338L318.5 641.166C318.5 650.739 310.739 658.5 301.166 658.5L231.834 658.5C222.261 658.5 214.5 650.739 214.5 641.166L214.5 79.8338C214.5 70.2607 222.261 62.5001 231.834 62.5001Z" stroke="#C50F3C" stroke-width="1.33333" stroke-miterlimit="8" fill="#FFFFFF" fill-rule="evenodd"/><text fill="#C50F3C" font-family="Corbel,Corbel_MSFontService,sans-serif" font-weight="400" font-size="37" transform="matrix(6.12323e-17 1 -1 6.12323e-17 253.4 270)">D</text><text fill="#C50F3C" font-family="Corbel,Corbel_MSFontService,sans-serif" font-weight="400" font-size="30" transform="matrix(6.12323e-17 1 -1 6.12323e-17 253.4 295)">ATENQUALITÄT</text><text fill="#FFFFFF" font-family="Corbel,Corbel_MSFontService,sans-serif" font-weight="400" font-size="37" transform="translate(404.777 297)">D</text><text fill="#FFFFFF" font-family="Corbel,Corbel_MSFontService,sans-serif" font-weight="400" font-size="30" transform="translate(429.777 297)">ATENAUFBEREITUNG</text><text fill="#FFFFFF" font-family="Corbel,Corbel_MSFontService,sans-serif" font-weight="700" font-size="37" transform="translate(404.777 156)">D</text><text fill="#FFFFFF" font-family="Corbel,Corbel_MSFontService,sans-serif" font-weight="700" font-size="30" transform="translate(430.443 156)">ATENERHEBUNG</text><text fill="#FFFFFF" font-family="Corbel,Corbel_MSFontService,sans-serif" font-weight="400" font-size="37" transform="translate(404.777 439)">D</text><text fill="#FFFFFF" font-family="Corbel,Corbel_MSFontService,sans-serif" font-weight="400" font-size="30" transform="translate(429.777 439)">ATENANALYSE</text><text fill="#FFFFFF" font-family="Corbel,Corbel_MSFontService,sans-serif" font-weight="400" font-size="37" transform="translate(404.777 580)">D</text><text fill="#FFFFFF" font-family="Corbel,Corbel_MSFontService,sans-serif" font-weight="400" font-size="30" transform="translate(429.777 580)">ATENBEREITSTELLUNG</text></g></svg>